<?xml version="1.0" encoding="UTF-8" standalone="no"?>
<!DOCTYPE svg PUBLIC "-//W3C//DTD SVG 1.1//EN" "http://www.w3.org/Graphics/SVG/1.1/DTD/svg11.dtd">
<svg width="100%" height="100%" viewBox="0 0 1014 917" version="1.1" xmlns="http://www.w3.org/2000/svg" xmlns:xlink="http://www.w3.org/1999/xlink" xml:space="preserve" xmlns:serif="http://www.serif.com/" style="fill-rule:evenodd;clip-rule:evenodd;stroke-linejoin:round;stroke-miterlimit:2;">
    <g transform="matrix(5.74298,0,0,5.74298,-1374.02,-2103.32)">
        <path d="M360.092,525.81L359.277,525.81L359.277,512.175L360.092,512.175L360.092,513.076C360.3,512.768 360.793,512.072 361.854,512.072C362.82,512.072 363.312,512.789 363.502,513.424C363.653,513.935 363.653,514.468 363.653,515.143L363.653,520.139C363.653,521.941 362.574,522.514 361.721,522.514C360.755,522.514 360.338,521.961 360.092,521.633L360.092,525.81ZM412.037,523.517C412.056,523.906 412.075,524.868 413.344,524.868C413.533,524.868 414.859,524.848 414.859,523.251L414.859,521.531C414.518,521.941 414.083,522.432 413.192,522.432C411.317,522.432 411.317,520.487 411.317,519.607L411.317,514.406C411.317,513.342 411.658,512.072 413.268,512.072C414.196,512.072 414.613,512.666 414.859,513.014L414.859,512.134L415.674,512.134L415.674,522.944C415.674,523.537 415.674,524.438 414.935,525.114C414.499,525.544 413.912,525.708 413.325,525.708C412.491,525.708 412.037,525.36 411.923,525.278C411.298,524.807 411.26,524.152 411.241,523.517L412.037,523.517ZM342.195,489.707L341.913,489.724C341.058,489.74 339.623,489.567 338.345,489.51C335.433,489.382 332.469,489.189 329.634,489.584C328.971,489.676 328.065,489.687 327.964,490.387C327.821,491.38 328.936,491.62 329.895,492.168C333.575,494.305 337.405,496.222 340.896,498.649C344.459,501.125 346.886,504.97 347.181,509.615C347.489,514.476 345.201,519.423 340.663,521.904C337.202,523.796 333.114,524.083 329.246,524.042C326.148,524.009 323.049,523.82 320.016,523.153C320.016,523.153 318.755,522.809 318.07,522.023C317.542,521.419 317.263,520.607 317.208,519.835L316.955,515.411C316.918,514.452 317.04,514.367 317.273,513.896C317.746,512.941 318.736,512.274 319.805,512.205L320.083,512.189C321.474,512.155 322.666,512.324 323.934,512.358C326.827,512.434 329.805,512.636 332.524,512.245C333.313,512.131 334.244,511.97 334.34,511.274C334.455,510.439 334.016,509.737 333.033,509.082C332.721,508.873 332.4,508.678 332.078,508.484L322.448,502.868C317.885,500.181 314.978,495.145 315.235,489.643C315.415,485.791 317.199,482.076 320.799,480.028C323.397,478.55 326.448,478.02 329.398,477.854C333.573,477.626 337.736,477.949 341.88,478.666C341.88,478.666 343.193,478.996 343.888,479.816C344.4,480.422 344.66,481.218 344.716,482.008L344.961,486.28C344.995,487.059 344.842,487.867 344.397,488.492C344.397,488.492 343.471,489.619 342.195,489.707ZM255.876,477.616C256.726,477.615 257.577,477.644 258.424,477.717C263.27,478.134 268.274,480.292 270.728,484.801C272.118,487.354 272.641,490.354 272.692,493.262L272.896,519.836C272.873,520.967 272.634,521.226 272.372,521.643C272.114,522.053 271.764,522.407 271.355,522.667C271.355,522.667 270.499,523.142 269.725,523.164C267.715,523.193 265.693,523.326 263.695,523.203C263.151,523.169 262.618,522.99 262.161,522.692L261.986,522.57C261.406,522.126 261.316,521.915 261.174,521.688C254.422,525.222 245.016,525.298 240.97,517.666C239.735,515.336 239.301,512.63 239.256,509.976L239.252,509.455C239.242,504.926 240.822,500.278 244.979,497.68C248.726,495.337 253.301,494.883 257.584,494.843L259.98,494.825L259.97,493.483C259.952,492.116 259.949,490.487 258.686,489.866C257.29,489.18 255.595,489.438 253.846,489.485C250.897,489.565 247.934,489.707 245.027,490.104C245.027,490.104 243.637,490.214 242.771,489.737C242.771,489.737 241.951,489.32 241.576,488.385C241.576,488.385 241.339,487.688 241.32,487.088L241.283,482.26C241.319,480.56 242.636,479.224 244.437,478.834C248.191,478.032 252.048,477.639 255.876,477.616ZM308.084,511.254C308.978,511.32 309.843,511.727 310.388,512.437C310.718,512.867 310.743,512.998 310.845,513.348C310.851,513.369 310.968,513.935 310.968,514.277L310.815,519.227C310.783,520.013 310.648,520.812 310.199,521.465C310.135,521.558 310.065,521.647 309.99,521.732C309.248,522.575 308.025,522.783 306.941,522.96C302.386,523.694 297.757,524.024 293.12,523.627C286.603,523.068 280.417,519.211 277.882,512.338C276.161,507.669 276.509,502.478 276.691,497.272C276.721,496.398 276.785,495.525 276.885,494.657C276.885,494.657 277.009,493.636 277.157,492.818C278.126,487.49 280.976,482.367 285.613,479.713C288.456,478.085 291.797,477.411 295.089,477.459C301.453,477.551 307.653,480.697 310.666,486.88C312.4,490.438 312.987,494.489 312.883,498.393C312.827,500.518 313.134,502.87 312.354,504.485C312.354,504.485 311.317,506.277 309.444,506.251L289.262,505.629C289.269,505.699 289.276,505.77 289.284,505.84C289.497,507.709 290.182,509.632 291.823,510.677C293.416,511.693 295.423,511.618 297.494,511.629C300.763,511.647 304.033,511.493 307.288,511.265L307.56,511.245C307.749,511.236 307.858,511.241 308.084,511.254ZM381.726,522.473L380.987,522.473L380.987,521.388C380.779,521.797 380.286,522.555 379.225,522.555C377.331,522.555 377.331,520.446 377.331,519.955L377.331,514.795C377.331,512.441 378.676,512.175 379.244,512.175C380.248,512.175 380.646,512.748 380.93,513.157L380.93,508.019L381.726,508.019L381.726,522.473ZM396.787,522.473L395.953,522.473L395.953,508.019L396.749,508.019L396.749,513.055C397.033,512.666 397.469,512.052 398.492,512.052C400.348,512.052 400.348,514.058 400.348,514.795L400.348,520.077C400.348,521.592 399.458,522.534 398.34,522.534C397.393,522.534 396.976,521.92 396.787,521.633L396.787,522.473ZM387.864,515.839L387.068,515.839C387.068,514.672 387.068,514.406 386.955,513.997C386.784,513.362 386.367,512.932 385.704,512.932C384.302,512.932 384.302,514.468 384.302,514.836L384.302,519.259C384.302,520.344 384.302,521.715 385.799,521.715C387.125,521.715 387.125,520.405 387.125,520.037L387.125,518.542L387.959,518.542L387.959,519.873C387.959,520.569 387.959,522.534 385.648,522.534C384.492,522.534 383.999,521.797 383.924,521.674C383.507,521.04 383.488,520.2 383.488,519.525L383.488,514.775C383.488,514.263 383.488,512.175 385.666,512.175C387.788,512.175 387.864,514.14 387.864,514.939L387.864,515.839ZM393.945,522.452L393.13,522.452L393.13,521.49C392.884,521.838 392.392,522.514 391.407,522.514C391.009,522.514 390.649,522.391 390.365,522.186C389.607,521.633 389.607,520.63 389.607,520.098L389.607,512.154L390.402,512.154L390.402,519.893C390.402,520.528 390.478,521.777 391.653,521.777C392.619,521.777 392.96,520.896 393.13,520.446L393.13,512.154L393.945,512.154L393.945,522.452ZM372.102,517.416L372.102,519.955C372.102,521.285 372.728,521.695 373.504,521.695C373.713,521.695 374.452,521.695 374.736,520.835C374.868,520.487 374.868,520.385 374.868,518.91L375.664,518.91L375.664,520.057C375.664,521.613 374.868,522.493 373.466,522.493C373.012,522.493 372.462,522.411 371.97,521.92C371.439,521.429 371.307,520.835 371.307,519.975L371.307,514.591C371.307,513.014 372.084,512.113 373.448,512.113C375.664,512.113 375.664,514.079 375.664,515.348L375.664,517.416L372.102,517.416ZM366.173,517.416L366.173,519.955C366.173,521.285 366.798,521.695 367.575,521.695C367.783,521.695 368.522,521.695 368.806,520.835C368.939,520.487 368.939,520.385 368.939,518.91L369.734,518.91L369.734,520.057C369.734,521.613 368.939,522.493 367.537,522.493C367.082,522.493 366.533,522.411 366.04,521.92C365.51,521.429 365.377,520.835 365.377,519.975L365.377,514.591C365.377,513.014 366.154,512.113 367.518,512.113C369.734,512.113 369.734,514.079 369.734,515.348L369.734,517.416L366.173,517.416ZM357.61,515.307L356.796,515.307C356.796,513.731 356.796,512.953 355.621,512.953C354.428,512.953 354.428,513.833 354.428,514.283C354.428,515.205 354.466,515.491 356.303,517.129C357.212,517.928 357.743,518.419 357.743,519.934C357.743,520.712 357.591,521.49 357.061,521.981C356.758,522.248 356.284,522.493 355.526,522.493C354.333,522.493 353.897,521.961 353.765,521.797C353.253,521.203 353.253,520.425 353.253,518.849L354.049,518.849L354.049,519.75C354.049,520.385 354.049,521.674 355.526,521.674C356.265,521.674 356.928,521.347 356.928,519.955C356.928,518.87 356.701,518.665 355.337,517.416C354.257,516.433 353.613,515.819 353.613,514.345C353.613,513.465 353.821,512.134 355.621,512.134C357.61,512.134 357.61,513.792 357.61,514.591L357.61,515.307ZM403.038,522.473L402.243,522.473L402.243,512.154L403.038,512.154L403.038,522.473ZM405.88,522.473L405.084,522.473L405.084,512.154L405.88,512.154L405.88,513.157C406.012,512.912 406.164,512.646 406.543,512.379C406.846,512.175 407.225,512.052 407.642,512.052C407.907,512.052 408.286,512.113 408.627,512.318C409.441,512.83 409.441,513.792 409.441,514.202L409.441,522.473L408.646,522.473L408.646,514.222C408.646,513.137 408.002,512.809 407.471,512.809C406.998,512.809 406.524,513.055 406.221,513.424C406.031,513.669 405.956,513.874 405.88,514.099L405.88,522.473ZM380.93,520.282C380.93,520.548 380.533,521.777 379.434,521.777C378.127,521.777 378.127,520.282 378.127,519.791L378.127,514.795C378.127,513.076 379.188,512.994 379.453,512.994C380.684,512.994 380.93,514.55 380.93,514.816L380.93,520.282ZM399.552,519.77C399.552,520.159 399.552,520.917 399.079,521.408C398.871,521.633 398.586,521.756 398.283,521.756C397.639,521.756 396.768,521.142 396.768,519.688L396.768,514.734C396.768,513.383 397.544,512.871 398.283,512.871C399.211,512.871 399.552,513.669 399.552,514.754L399.552,519.77ZM362.839,519.709C362.839,520.405 362.839,521.715 361.57,521.715C360.509,521.715 360.092,520.733 360.092,520.548L360.092,514.202C360.092,513.935 360.547,512.85 361.607,512.85C362.024,512.85 362.839,513.076 362.839,514.468L362.839,519.709ZM414.859,520.057C414.859,520.364 414.461,521.613 413.363,521.613C412.112,521.613 412.112,520.303 412.112,519.648L412.112,514.877C412.112,514.222 412.112,512.85 413.42,512.85C414.461,512.85 414.859,513.997 414.859,514.283L414.859,520.057ZM374.849,516.699L374.849,514.795C374.849,514.468 374.849,512.891 373.485,512.891C372.102,512.891 372.102,514.386 372.102,514.877L372.102,516.699L374.849,516.699ZM368.92,516.699L368.92,514.795C368.92,514.468 368.92,512.891 367.556,512.891C366.173,512.891 366.173,514.386 366.173,514.877L366.173,516.699L368.92,516.699ZM260.058,505.044L257.665,505.062C255.866,505.079 253.778,505.061 252.716,506.339C251.97,507.237 252.031,508.661 252.048,509.895C252.075,510.875 252.222,511.946 253.132,512.21C255.362,512.857 257.939,512.149 260.094,511.074L260.058,505.044ZM403.038,510.967L402.243,510.967L402.243,509.37L403.038,509.37L403.038,510.967ZM366.021,508.932L365.207,508.932L365.207,495.297L366.021,495.297L366.021,496.198C366.23,495.891 366.722,495.195 367.783,495.195C368.749,495.195 369.242,495.911 369.431,496.546C369.583,497.058 369.583,497.59 369.583,498.266L369.583,503.261C369.583,505.063 368.503,505.636 367.651,505.636C366.684,505.636 366.268,505.083 366.021,504.756L366.021,508.932ZM406.998,505.595L406.259,505.595L406.259,504.51C406.05,504.92 405.558,505.677 404.497,505.677C402.602,505.677 402.602,503.568 402.602,503.077L402.602,497.918C402.602,495.563 403.948,495.297 404.516,495.297C405.52,495.297 405.918,495.87 406.202,496.28L406.202,491.141L406.998,491.141L406.998,505.595ZM383.469,503.118C383.469,503.998 383.583,504.797 384.397,505.288C384.947,505.636 385.496,505.636 385.666,505.636C385.875,505.636 386.898,505.636 387.504,504.674C387.864,504.101 387.921,503.487 387.921,502.668L387.921,497.774C387.921,497.14 387.921,495.236 385.742,495.236C384.89,495.236 383.469,495.645 383.469,497.713L383.469,503.118ZM363.54,498.43L362.725,498.43C362.725,496.853 362.725,496.075 361.551,496.075C360.357,496.075 360.357,496.956 360.357,497.406C360.357,498.327 360.395,498.614 362.233,500.252C363.142,501.05 363.672,501.542 363.672,503.057C363.672,503.835 363.521,504.613 362.99,505.104C362.687,505.37 362.214,505.616 361.456,505.616C360.262,505.616 359.827,505.083 359.694,504.92C359.183,504.326 359.183,503.548 359.183,501.972L359.978,501.972L359.978,502.872C359.978,503.507 359.978,504.797 361.456,504.797C362.195,504.797 362.858,504.469 362.858,503.077C362.858,501.992 362.63,501.787 361.266,500.538C360.187,499.556 359.543,498.941 359.543,497.467C359.543,496.587 359.751,495.256 361.551,495.256C363.54,495.256 363.54,496.915 363.54,497.713L363.54,498.43ZM354.333,500.538L354.333,503.077C354.333,504.408 354.958,504.817 355.735,504.817C355.943,504.817 356.682,504.817 356.966,503.957C357.099,503.609 357.099,503.507 357.099,502.033L357.894,502.033L357.894,503.179C357.894,504.735 357.099,505.616 355.697,505.616C355.242,505.616 354.693,505.534 354.2,505.043C353.67,504.551 353.537,503.957 353.537,503.098L353.537,497.713C353.537,496.137 354.314,495.236 355.678,495.236C357.894,495.236 357.894,497.201 357.894,498.471L357.894,500.538L354.333,500.538ZM409.612,500.538L409.612,503.077C409.612,504.408 410.237,504.817 411.014,504.817C411.222,504.817 411.961,504.817 412.245,503.957C412.378,503.609 412.378,503.507 412.378,502.033L413.173,502.033L413.173,503.179C413.173,504.735 412.378,505.616 410.976,505.616C410.521,505.616 409.972,505.534 409.479,505.043C408.949,504.551 408.816,503.957 408.816,503.098L408.816,497.713C408.816,496.137 409.593,495.236 410.957,495.236C413.173,495.236 413.173,497.201 413.173,498.471L413.173,500.538L409.612,500.538ZM372.235,498.471C372.235,497.099 372.235,496.055 373.504,496.055C374.622,496.055 374.717,496.812 374.717,497.734L374.717,498.921C374.224,499.33 374.092,499.392 373.125,499.945C372.14,500.497 371.023,501.214 371.023,503.179C371.023,504.449 371.553,505.595 372.898,505.595C373.789,505.595 374.319,505.145 374.736,504.797C374.906,505.472 375.266,505.595 376.1,505.595L376.1,504.776C375.816,504.776 375.531,504.756 375.531,504.408L375.531,497.488C375.531,496.853 375.531,495.236 373.599,495.236C371.42,495.236 371.42,496.894 371.42,498.471L372.235,498.471ZM393.168,498.471C393.168,497.099 393.168,496.055 394.438,496.055C395.555,496.055 395.65,496.812 395.65,497.734L395.65,498.921C395.157,499.33 395.025,499.392 394.059,499.945C393.074,500.497 391.956,501.214 391.956,503.179C391.956,504.449 392.486,505.595 393.831,505.595C394.722,505.595 395.252,505.145 395.669,504.797C395.839,505.472 396.199,505.595 397.033,505.595L397.033,504.776C396.749,504.776 396.465,504.756 396.465,504.408L396.465,497.488C396.465,496.853 396.465,495.236 394.532,495.236C392.354,495.236 392.354,496.894 392.354,498.471L393.168,498.471ZM390.459,505.595L389.645,505.595L389.645,491.141L390.459,491.141L390.459,505.595ZM378.259,505.595L377.464,505.595L377.464,495.277L378.259,495.277L378.259,496.28C378.392,496.034 378.543,495.768 378.922,495.502C379.225,495.297 379.604,495.174 380.021,495.174C380.286,495.174 380.665,495.236 381.006,495.441C381.821,495.952 381.821,496.915 381.821,497.324L381.821,505.595L381.025,505.595L381.025,497.345C381.025,496.259 380.381,495.932 379.851,495.932C379.377,495.932 378.903,496.178 378.6,496.546C378.411,496.792 378.335,496.996 378.259,497.222L378.259,505.595ZM406.202,503.405C406.202,503.671 405.804,504.899 404.705,504.899C403.398,504.899 403.398,503.405 403.398,502.913L403.398,497.918C403.398,496.198 404.459,496.116 404.724,496.116C405.956,496.116 406.202,497.672 406.202,497.938L406.202,503.405ZM368.768,502.831C368.768,503.527 368.768,504.838 367.499,504.838C366.438,504.838 366.021,503.855 366.021,503.671L366.021,497.324C366.021,497.058 366.476,495.973 367.537,495.973C367.954,495.973 368.768,496.198 368.768,497.59L368.768,502.831ZM387.106,503.016C387.106,504.367 386.424,504.797 385.648,504.797C384.284,504.797 384.284,503.446 384.284,503.098L384.284,498.123C384.284,497.447 384.284,496.096 385.761,496.096C387.106,496.096 387.106,497.488 387.106,497.877L387.106,503.016ZM374.736,503.794C374.357,504.244 373.902,504.776 373.069,504.776C372.178,504.776 371.837,504.019 371.837,503.2C371.837,501.685 372.633,501.194 373.599,500.6C374.357,500.149 374.433,500.108 374.736,499.883L374.736,503.794ZM395.669,503.794C395.29,504.244 394.835,504.776 394.002,504.776C393.111,504.776 392.771,504.019 392.771,503.2C392.771,501.685 393.566,501.194 394.532,500.6C395.29,500.149 395.366,500.108 395.669,499.883L395.669,503.794ZM412.359,499.822L412.359,497.918C412.359,497.59 412.359,496.014 410.995,496.014C409.612,496.014 409.612,497.508 409.612,498L409.612,499.822L412.359,499.822ZM357.08,499.822L357.08,497.918C357.08,497.59 357.08,496.014 355.716,496.014C354.333,496.014 354.333,497.508 354.333,498L354.333,499.822L357.08,499.822ZM295.195,489.565C292.547,489.477 290.296,491.557 289.724,494.847L300.149,495.331C299.941,492.738 298.668,489.763 295.308,489.57C295.27,489.568 295.232,489.566 295.195,489.565ZM381.385,492.206C381.025,492.656 380.855,492.861 380.514,492.861C380.343,492.861 380.267,492.84 379.68,492.554C379.434,492.451 379.169,492.37 378.922,492.37C378.24,492.37 377.824,493.025 377.52,493.496C377.596,493.577 377.729,493.7 377.824,493.762C378.013,493.516 378.24,493.229 378.638,493.229C378.922,493.229 380.04,493.741 380.286,493.741C380.893,493.741 381.234,493.229 381.688,492.472C381.612,492.39 381.48,492.288 381.385,492.206ZM375.437,482.084L374.641,482.084C374.641,480.917 374.641,480.651 374.527,480.242C374.357,479.607 373.94,479.177 373.277,479.177C371.875,479.177 371.875,480.713 371.875,481.081L371.875,485.503C371.875,486.589 371.875,487.96 373.372,487.96C374.698,487.96 374.698,486.65 374.698,486.281L374.698,484.787L375.531,484.787L375.531,486.118C375.531,486.814 375.531,488.779 373.22,488.779C372.065,488.779 371.572,488.042 371.496,487.919C371.08,487.285 371.061,486.445 371.061,485.77L371.061,481.02C371.061,480.508 371.061,478.42 373.239,478.42C375.361,478.42 375.437,480.385 375.437,481.184L375.437,482.084ZM390.459,482.084L389.664,482.084C389.664,480.917 389.664,480.651 389.55,480.242C389.38,479.607 388.963,479.177 388.3,479.177C386.898,479.177 386.898,480.713 386.898,481.081L386.898,485.503C386.898,486.589 386.898,487.96 388.394,487.96C389.72,487.96 389.72,486.65 389.72,486.281L389.72,484.787L390.554,484.787L390.554,486.118C390.554,486.814 390.554,488.779 388.243,488.779C387.087,488.779 386.595,488.042 386.519,487.919C386.102,487.285 386.083,486.445 386.083,485.77L386.083,481.02C386.083,480.508 386.083,478.42 388.262,478.42C390.384,478.42 390.459,480.385 390.459,481.184L390.459,482.084ZM394.76,486.24C394.76,487.121 394.873,487.919 395.688,488.411C396.237,488.759 396.787,488.759 396.957,488.759C397.166,488.759 398.189,488.759 398.795,487.796C399.155,487.223 399.211,486.609 399.211,485.79L399.211,480.897C399.211,480.262 399.211,478.358 397.033,478.358C396.18,478.358 394.76,478.768 394.76,480.836L394.76,486.24ZM364.923,486.24C364.923,487.121 365.036,487.919 365.851,488.411C366.4,488.759 366.95,488.759 367.12,488.759C367.329,488.759 368.352,488.759 368.958,487.796C369.318,487.223 369.375,486.609 369.375,485.79L369.375,480.897C369.375,480.262 369.375,478.358 367.196,478.358C366.343,478.358 364.923,478.768 364.923,480.836L364.923,486.24ZM363.54,481.552L362.725,481.552C362.725,479.976 362.725,479.198 361.551,479.198C360.357,479.198 360.357,480.078 360.357,480.528C360.357,481.45 360.395,481.736 362.233,483.374C363.142,484.173 363.672,484.664 363.672,486.179C363.672,486.957 363.521,487.735 362.99,488.226C362.687,488.493 362.214,488.738 361.456,488.738C360.262,488.738 359.827,488.206 359.694,488.042C359.183,487.448 359.183,486.67 359.183,485.094L359.978,485.094L359.978,485.995C359.978,486.629 359.978,487.919 361.456,487.919C362.195,487.919 362.858,487.592 362.858,486.2C362.858,485.114 362.63,484.91 361.266,483.661C360.187,482.678 359.543,482.064 359.543,480.59C359.543,479.709 359.751,478.379 361.551,478.379C363.54,478.379 363.54,480.037 363.54,480.836L363.54,481.552ZM354.466,481.593C354.466,480.221 354.466,479.177 355.735,479.177C356.852,479.177 356.947,479.935 356.947,480.856L356.947,482.043C356.455,482.453 356.322,482.514 355.356,483.067C354.371,483.62 353.253,484.336 353.253,486.302C353.253,487.571 353.784,488.718 355.129,488.718C356.019,488.718 356.549,488.267 356.966,487.919C357.137,488.595 357.497,488.718 358.33,488.718L358.33,487.899C358.046,487.899 357.762,487.878 357.762,487.53L357.762,480.61C357.762,479.976 357.762,478.358 355.829,478.358C353.651,478.358 353.651,480.017 353.651,481.593L354.466,481.593ZM380.741,481.593C380.741,480.221 380.741,479.177 382.01,479.177C383.128,479.177 383.223,479.935 383.223,480.856L383.223,482.043C382.73,482.453 382.598,482.514 381.631,483.067C380.646,483.62 379.529,484.336 379.529,486.302C379.529,487.571 380.059,488.718 381.404,488.718C382.294,488.718 382.825,488.267 383.242,487.919C383.412,488.595 383.772,488.718 384.606,488.718L384.606,487.899C384.321,487.899 384.037,487.878 384.037,487.53L384.037,480.61C384.037,479.976 384.037,478.358 382.105,478.358C379.926,478.358 379.926,480.017 379.926,481.593L380.741,481.593ZM401.788,488.718L400.992,488.718L400.992,478.399L401.788,478.399L401.788,479.402C401.921,479.157 402.072,478.891 402.451,478.624C402.754,478.42 403.133,478.297 403.55,478.297C403.815,478.297 404.194,478.358 404.535,478.563C405.349,479.075 405.349,480.037 405.349,480.447L405.349,488.718L404.554,488.718L404.554,480.467C404.554,479.382 403.91,479.054 403.379,479.054C402.906,479.054 402.432,479.3 402.129,479.669C401.939,479.914 401.864,480.119 401.788,480.344L401.788,488.718ZM393.017,488.718L392.221,488.718L392.221,478.399L393.017,478.399L393.017,488.718ZM377.994,488.718L377.198,488.718L377.198,478.399L377.994,478.399L377.994,488.718ZM398.397,486.138C398.397,487.489 397.715,487.919 396.938,487.919C395.574,487.919 395.574,486.568 395.574,486.22L395.574,481.245C395.574,480.569 395.574,479.218 397.052,479.218C398.397,479.218 398.397,480.61 398.397,480.999L398.397,486.138ZM368.56,486.138C368.56,487.489 367.878,487.919 367.101,487.919C365.737,487.919 365.737,486.568 365.737,486.22L365.737,481.245C365.737,480.569 365.737,479.218 367.215,479.218C368.56,479.218 368.56,480.61 368.56,480.999L368.56,486.138ZM356.966,486.916C356.587,487.367 356.133,487.899 355.299,487.899C354.409,487.899 354.068,487.141 354.068,486.322C354.068,484.807 354.863,484.316 355.829,483.722C356.587,483.272 356.663,483.231 356.966,483.006L356.966,486.916ZM383.242,486.916C382.863,487.367 382.408,487.899 381.575,487.899C380.684,487.899 380.343,487.141 380.343,486.322C380.343,484.807 381.139,484.316 382.105,483.722C382.863,483.272 382.939,483.231 383.242,483.006L383.242,486.916ZM393.017,477.212L392.221,477.212L392.221,475.615L393.017,475.615L393.017,477.212ZM377.994,477.212L377.198,477.212L377.198,475.615L377.994,475.615L377.994,477.212ZM396.484,477.109L395.802,477.109L397.393,474.878L399.193,474.878L396.484,477.109ZM303.26,379.557C315.112,372.723 325.622,368.454 334.439,366.449C338.356,365.559 339.284,367.765 337.293,368.964C333.864,371.029 331.763,372.28 329.445,374.638C328.451,375.648 329.37,376.799 330.547,376.062C336.579,372.287 339.116,370.858 343.384,369.765C346.613,368.939 347.99,370.693 346.084,372.079C344.758,373.042 344.364,373.424 344.427,374.158C344.479,374.762 345.1,375.188 346.814,374.422C348.701,373.578 353.306,371.947 353.893,371.779C359.209,370.257 362.25,373.069 363.375,375.408C363.999,376.707 364.665,378.139 365.363,379.677C366.085,379.798 369.259,380.166 369.967,380.216C375.197,380.581 377.096,385.531 377.1,390.763C377.103,394.68 376.77,398.872 376.283,405.674C380.055,415.117 383.549,424.254 385.745,430.284C388.513,437.889 385.14,443.625 378.474,447.106C377.642,447.54 377.234,447.73 376.419,448.152C376.367,449.855 376.037,457.392 375.967,458.385C375.364,466.883 372.198,467.774 362.347,467.836C354.779,467.883 350.289,467.58 335.861,467.391C330.316,469.786 325.551,471.858 322.587,473.133C314.389,476.657 308.028,477.818 303.06,468.583C302.615,467.754 302.46,467.503 302.02,466.67C299.029,466.663 294.112,466.676 292.282,466.686C284.047,466.733 283.514,463.549 283.391,455.01C283.334,451.06 283.69,438.69 283.768,428.636C281.48,423.684 279.686,420.067 277.591,415.708C274.692,409.675 271.302,402.522 279.605,395.662C281.159,394.379 282.811,393.084 284.544,391.788C284.55,391.252 284.593,387.688 284.593,387.688C284.567,383.655 284.985,379.42 291.327,379.292C292.639,379.266 301.621,379.572 303.26,379.557ZM315.105,459.424C314.716,460.793 313.622,462.516 311.132,462.459C303.87,462.29 296.13,462.352 293.062,462.173C286.13,461.767 287.019,458.272 286.891,450.485C286.854,448.203 287.049,445.146 287.089,440.062C287.111,437.178 289.279,437.919 289.338,440.37C289.438,444.509 289.686,448.042 289.623,450.229C289.423,457.148 290.042,459.14 294.696,459.596C297.228,459.844 303.637,459.715 309.644,459.882C312.319,459.956 313.548,457.097 313.61,455.879C313.845,451.236 313.804,448.381 313.965,441.319C314.053,437.472 316.534,437.117 316.522,441.426C316.505,447.759 316.518,450.816 316.438,455.716C316.397,458.224 318.2,459.996 320.704,460.125C327.675,460.486 334.619,460.477 341.434,460.836C343.352,460.937 344.948,458.599 345.022,457.707C345.503,451.949 345.196,447.936 345.391,440.777C345.484,437.353 348.083,438.013 348.115,440.811C348.194,447.69 348.263,452.043 348.157,457.659C348.135,458.813 349.511,460.792 351.525,460.911C355.482,461.144 363.744,461.138 366.58,461.074C370.397,460.987 370.424,457.325 370.563,453.27C370.62,451.606 370.922,445.139 370.98,441.485C371.029,438.449 373.07,438.985 373.132,442.106C373.221,446.545 372.871,453.899 372.804,455.614C372.641,459.791 372.613,463.564 367.999,463.656C364.57,463.723 354.582,463.735 349.798,463.497C347.837,463.4 346.965,462.069 346.713,460.933C346.376,462.007 345.392,463.507 343.536,463.424C335.297,463.059 326.902,463.072 318.475,462.705C316.089,462.6 315.315,460.801 315.105,459.424ZM373.589,411.588C373.587,410.356 372.48,408.031 370.227,408.019C364.828,407.991 357.856,408.087 351.45,407.857C349.063,407.771 348.392,410.168 348.369,411.086C348.311,413.338 348.179,414.987 348.093,416.815C347.848,422 347.835,428.01 347.566,434.148C347.525,435.082 348.019,436.996 349.848,437.078C355.865,437.349 363.93,437.784 370.401,437.662C372.629,437.62 373.529,435.713 373.537,434.678C373.598,427.153 373.602,418.566 373.589,411.588ZM342.232,407.725C343.28,407.746 345.142,408.559 345.115,411.55C345.069,416.606 344.646,425.058 344.49,434.12C344.474,435.053 343.391,436.747 341.756,436.685C336.995,436.507 333.422,436.447 329.376,436.303C326.617,436.205 323.28,436.133 319.66,436.082C318.52,436.065 316.321,434.647 316.366,432.68C316.516,426.029 317.041,415.976 317.263,411.021C317.456,406.719 320.43,407.392 322.478,407.43C327.002,407.514 333.861,407.561 342.232,407.725ZM290.237,406.202C288.948,406.161 287.136,407.171 287.047,409.263C286.859,413.688 286.691,423.64 286.876,432.569C286.912,434.336 288.162,435.957 289.865,435.982C295.683,436.067 303.454,436.069 311.001,435.996C312.995,435.977 313.92,433.722 313.943,432.604C314.116,424.09 314.408,416.76 314.518,411.898C314.579,409.222 314.422,407.106 310.738,406.866C302.633,406.336 294.448,406.335 290.237,406.202ZM318.164,402.195C318.059,404.967 315.34,405.547 315.359,401.606C315.378,397.53 315.581,393.364 315.591,388.381C315.594,386.768 314.235,385.142 312.885,385.124C308.154,385.061 298.129,384.629 295.096,384.598C291.751,384.564 290.182,385.643 290.168,389.773C290.168,389.773 290.047,397.842 289.913,401.517C289.829,403.831 287.32,404.714 287.306,400.997C287.292,397.21 287.496,387.537 287.496,387.537C287.508,383.282 289.402,382.17 293.447,382.203C297.113,382.232 309.233,382.672 314.953,382.734C316.033,382.746 316.756,383.424 317.095,384.363C317.494,383.507 318.342,382.651 319.877,382.676C328.578,382.818 335.48,382.874 343.844,383.073C344.824,383.096 346.725,383.746 347.343,385.332C347.803,384.352 349.083,383.047 350.46,383.05C354.414,383.06 364.265,382.918 366.687,383.023C373.731,383.329 374.022,386.926 373.955,396.038C373.955,396.038 373.786,402.026 373.614,405.356C373.575,406.127 371.638,407.254 371.557,404.625C371.453,401.248 371.347,395.353 371.347,395.353C371.051,388.239 372.09,385.732 366.264,385.432C364.26,385.328 356.179,385.462 352.908,385.452C351.485,385.447 349.718,386.86 349.597,388.951C349.377,392.758 349.094,401.703 349.074,402.696C349.008,405.922 345.939,406.398 346.004,403.062C346.101,398.144 346.402,393.069 346.339,388.753C346.305,386.416 343.006,385.496 342.026,385.469C335.108,385.272 329.331,385.213 322.134,385.071C320.239,385.034 318.803,387.577 318.781,388.506C318.676,392.955 318.33,397.767 318.164,402.195Z"/>
    </g>
</svg>
