<?xml version="1.0" encoding="UTF-8" standalone="no"?>
<!DOCTYPE svg PUBLIC "-//W3C//DTD SVG 1.1//EN" "http://www.w3.org/Graphics/SVG/1.1/DTD/svg11.dtd">
<svg width="100%" height="100%" viewBox="0 0 1014 917" version="1.1" xmlns="http://www.w3.org/2000/svg" xmlns:xlink="http://www.w3.org/1999/xlink" xml:space="preserve" xmlns:serif="http://www.serif.com/" style="fill-rule:evenodd;clip-rule:evenodd;stroke-linejoin:round;stroke-miterlimit:2;">
    <g transform="matrix(4.16667,0,0,4.16667,-714.254,-369.655)">
        <path d="M259.644,107.068C275.98,97.649 290.466,91.765 302.619,89.002C308.018,87.774 309.297,90.815 306.553,92.468C301.826,95.314 298.931,97.038 295.735,100.288C294.366,101.68 295.632,103.266 297.255,102.25C305.568,97.048 309.065,95.078 314.948,93.572C319.398,92.433 321.296,94.851 318.669,96.761C316.841,98.089 316.298,98.615 316.385,99.627C316.457,100.459 317.312,101.046 319.676,99.99C322.277,98.827 328.623,96.579 329.432,96.348C336.759,94.25 340.952,98.126 342.501,101.349C343.362,103.14 344.28,105.113 345.241,107.233C346.237,107.401 350.612,107.908 351.587,107.976C358.796,108.48 361.413,115.302 361.419,122.514C361.423,127.912 360.965,133.69 360.293,143.067C365.492,156.082 370.308,168.675 373.334,176.986C377.151,187.468 372.501,195.374 363.312,200.172C362.166,200.771 361.603,201.032 360.481,201.613C360.409,203.962 359.954,214.349 359.857,215.718C359.026,227.432 354.662,228.659 341.085,228.744C330.654,228.81 324.465,228.392 304.578,228.132C296.936,231.432 290.369,234.289 286.282,236.045C274.983,240.903 266.216,242.503 259.368,229.774C258.755,228.632 258.54,228.286 257.935,227.137C253.812,227.128 247.036,227.146 244.513,227.16C233.163,227.224 232.428,222.836 232.258,211.066C232.18,205.622 232.67,188.572 232.778,174.714C229.624,167.888 227.151,162.903 224.264,156.895C220.268,148.58 215.596,138.721 227.04,129.266C229.181,127.497 231.459,125.712 233.847,123.927C233.856,123.187 233.915,118.275 233.915,118.275C233.88,112.717 234.455,106.879 243.197,106.703C245.004,106.667 257.385,107.089 259.644,107.068Z" style="fill:rgb(0,64,128);"/>
    </g>
    <g transform="matrix(4.16667,0,0,4.16667,-714.254,-369.655)">
        <path d="M356.58,151.218C356.577,149.52 355.052,146.315 351.946,146.298C344.504,146.26 334.895,146.391 326.065,146.074C322.775,145.957 321.851,149.26 321.818,150.525C321.739,153.629 321.557,155.902 321.438,158.421C321.1,165.568 321.082,173.852 320.712,182.312C320.655,183.6 321.336,186.237 323.857,186.351C332.151,186.723 343.267,187.324 352.185,187.156C355.256,187.098 356.497,184.469 356.508,183.043C356.592,172.67 356.598,160.834 356.58,151.218ZM313.36,145.893C314.805,145.921 317.371,147.042 317.334,151.166C317.27,158.135 316.688,169.782 316.472,182.274C316.449,183.559 314.957,185.894 312.704,185.809C306.142,185.563 301.217,185.48 295.64,185.282C291.837,185.147 287.238,185.048 282.249,184.977C280.677,184.955 277.646,183 277.708,180.288C277.915,171.121 278.639,157.265 278.945,150.436C279.211,144.507 283.309,145.433 286.132,145.486C292.369,145.603 301.822,145.666 313.36,145.893ZM241.694,143.793C239.917,143.736 237.42,145.13 237.297,148.013C237.039,154.111 236.806,167.829 237.061,180.135C237.112,182.571 238.834,184.805 241.181,184.839C249.2,184.957 259.911,184.959 270.314,184.859C273.061,184.833 274.337,181.725 274.369,180.184C274.607,168.449 275.01,158.346 275.162,151.645C275.246,147.955 275.029,145.041 269.951,144.708C258.778,143.978 247.498,143.978 241.694,143.793Z" style="fill:rgb(255,225,0);"/>
    </g>
    <g transform="matrix(4.16667,0,0,4.16667,-714.254,-369.655)">
        <path d="M356.179,195.542C356.205,194.026 355.469,190.195 351.346,190.072C342.319,189.802 332.596,189.075 324.049,189.072C321.852,189.071 320.222,191.81 320.124,193.193C319.436,202.945 319.592,210.197 319.425,218.171C319.391,219.81 320.433,222.598 323.789,222.765C330.382,223.092 344.149,223.076 348.875,222.983C355.234,222.857 355.273,217.656 355.497,211.898C355.59,209.535 356.089,200.731 356.179,195.542ZM312.324,222.664C315.29,222.806 316.516,219.544 316.561,218.274C316.832,210.58 317.097,203.459 317.126,193.29C317.134,190.262 313.535,188.881 312.554,188.866C302.201,188.714 293.431,188.667 287.503,188.434C285.365,188.35 282.897,188.238 280.206,188.106C278.904,188.042 276.238,189.478 276.232,192.665C276.217,201.658 275.993,208.843 275.878,215.802C275.849,217.546 276.401,221.49 280.273,221.672C291.052,222.179 301.788,222.161 312.324,222.664ZM267.694,221.333C271.779,221.436 272.889,217.398 272.937,215.667C273.141,208.243 273.014,202.618 273.082,192.588C273.091,191.29 272.474,187.767 268.747,187.681C259.902,187.478 249.471,186.841 241.022,186.743C238.508,186.714 237.112,189.978 237.106,191.181C237.072,198.188 237.033,201.684 237.081,204.83C237.242,215.563 236.119,220.38 244.873,220.939C248.748,221.186 258.523,221.101 267.694,221.333ZM351.973,144.225C355.477,144.332 356.652,138.849 356.647,137.562C356.628,132.765 356.61,129.771 356.61,129.771C356.7,117.211 356.773,112.266 347.239,111.845C343.96,111.7 330.102,111.827 324.749,111.815C322.42,111.809 320.293,114.622 320.287,115.856C320.251,122.642 320.537,131.531 320.452,138.504C320.432,140.103 321.869,143.351 324.492,143.468C333.24,143.856 344.489,143.996 351.973,144.225ZM317.016,116.505C317.041,113.187 313.908,111.884 312.442,111.845C302.096,111.571 294.039,111.563 283.276,111.367C280.442,111.315 279.502,113.97 279.471,115.29C279.322,121.607 278.938,130.662 278.892,136.953C278.873,139.526 279.418,141.324 282.495,141.464C286.572,141.65 290.89,141.684 294.084,141.811C300.295,142.056 306.566,142.573 312.811,142.676C314.095,142.697 316.357,141.927 316.631,138.727C317.194,132.16 316.969,122.797 317.016,116.505ZM241.323,141.016C247.783,141.082 259.772,141.315 271.039,141.186C273.854,141.154 274.777,138.299 274.887,136.634C275.269,130.857 275.231,122.35 275.567,115.88C275.686,113.592 274.652,111.472 272.59,111.448C265.361,111.361 250.043,110.756 245.41,110.715C240.298,110.669 237.904,112.203 237.889,118.067C237.889,118.067 237.646,131.123 237.586,136.343C237.571,137.663 238.024,140.981 241.323,141.016Z" style="fill:rgb(237,28,36);"/>
    </g>
    <g transform="matrix(4.16667,0,0,4.16667,-714.254,-369.655)">
        <path d="M337.977,308.651L336.854,308.651L336.854,289.858L337.977,289.858L337.977,291.099C338.264,290.676 338.943,289.716 340.405,289.716C341.737,289.716 342.415,290.704 342.677,291.579C342.885,292.284 342.885,293.018 342.885,293.949L342.885,300.835C342.885,303.318 341.397,304.108 340.222,304.108C338.89,304.108 338.316,303.346 337.977,302.895L337.977,308.651ZM409.573,305.491C409.599,306.027 409.625,307.353 411.375,307.353C411.636,307.353 413.464,307.325 413.464,305.124L413.464,302.754C412.994,303.318 412.393,303.995 411.166,303.995C408.581,303.995 408.581,301.314 408.581,300.101L408.581,292.933C408.581,291.466 409.051,289.716 411.27,289.716C412.55,289.716 413.124,290.535 413.464,291.015L413.464,289.801L414.586,289.801L414.586,304.701C414.586,305.519 414.586,306.761 413.568,307.692C412.967,308.284 412.158,308.51 411.349,308.51C410.2,308.51 409.573,308.03 409.416,307.918C408.555,307.269 408.502,306.366 408.476,305.491L409.573,305.491ZM313.31,258.89L312.921,258.913C311.742,258.936 309.764,258.696 308.003,258.619C303.988,258.441 299.903,258.176 295.996,258.72C295.082,258.847 293.834,258.862 293.695,259.827C293.497,261.196 295.034,261.527 296.356,262.282C301.428,265.228 306.707,267.87 311.519,271.215C316.43,274.628 319.775,279.927 320.181,286.329C320.606,293.029 317.452,299.848 311.197,303.268C306.426,305.876 300.792,306.271 295.461,306.214C291.19,306.169 286.92,305.909 282.739,304.989C282.739,304.989 281.002,304.514 280.057,303.432C279.33,302.6 278.944,301.48 278.87,300.417L278.52,294.318C278.47,292.996 278.637,292.879 278.958,292.23C279.61,290.914 280.975,289.995 282.449,289.899L282.832,289.877C284.749,289.831 286.392,290.064 288.14,290.11C292.127,290.215 296.231,290.493 299.979,289.954C301.067,289.797 302.35,289.575 302.482,288.617C302.641,287.466 302.035,286.498 300.681,285.594C300.251,285.307 299.809,285.038 299.365,284.771L286.091,277.03C279.802,273.326 275.795,266.386 276.149,258.801C276.397,253.493 278.857,248.372 283.818,245.55C287.4,243.512 291.605,242.781 295.671,242.552C301.425,242.239 307.164,242.683 312.875,243.671C312.875,243.671 314.684,244.126 315.642,245.257C316.349,246.092 316.707,247.189 316.783,248.278L317.121,254.167C317.169,255.24 316.957,256.353 316.344,257.215C316.344,257.215 315.067,258.768 313.31,258.89ZM194.333,242.225C195.506,242.223 196.679,242.263 197.846,242.363C204.526,242.939 211.423,245.912 214.805,252.128C216.72,255.647 217.442,259.781 217.512,263.79L217.793,300.417C217.761,301.976 217.431,302.333 217.07,302.907C216.715,303.472 216.233,303.961 215.669,304.319C215.669,304.319 214.489,304.974 213.423,305.004C210.652,305.044 207.865,305.227 205.111,305.058C204.362,305.012 203.627,304.764 202.997,304.354L202.756,304.186C201.956,303.573 201.832,303.282 201.636,302.969C192.329,307.841 179.365,307.946 173.789,297.426C172.087,294.215 171.488,290.485 171.426,286.827L171.421,286.109C171.407,279.867 173.585,273.461 179.315,269.879C184.479,266.65 190.784,266.023 196.688,265.97L199.99,265.944L199.976,264.095C199.953,262.21 199.948,259.965 198.207,259.109C196.285,258.164 193.946,258.519 191.536,258.584C187.471,258.695 183.387,258.89 179.38,259.438C179.38,259.438 177.464,259.589 176.271,258.931C176.271,258.931 175.141,258.356 174.624,257.068C174.624,257.068 174.297,256.107 174.272,255.28L174.221,248.625C174.27,246.282 176.085,244.441 178.567,243.904C183.742,242.797 189.057,242.256 194.333,242.225ZM266.293,288.588C267.526,288.679 268.718,289.24 269.469,290.219C269.924,290.812 269.958,290.993 270.099,291.475C270.107,291.504 270.268,292.284 270.268,292.756L270.058,299.578C270.013,300.662 269.827,301.762 269.208,302.663C269.12,302.791 269.023,302.913 268.92,303.03C267.897,304.192 266.212,304.479 264.718,304.723C258.439,305.735 252.059,306.19 245.668,305.642C236.686,304.872 228.159,299.555 224.666,290.083C222.292,283.647 222.773,276.492 223.023,269.317C223.065,268.112 223.153,266.91 223.291,265.713C223.291,265.713 223.461,264.306 223.666,263.178C225.002,255.834 228.929,248.772 235.32,245.115C239.24,242.872 243.844,241.942 248.382,242.008C257.153,242.135 265.699,246.471 269.852,254.993C272.242,259.898 273.052,265.48 272.908,270.863C272.83,273.791 273.254,277.033 272.179,279.259C272.179,279.259 270.749,281.729 268.167,281.692L240.35,280.835C240.359,280.932 240.37,281.029 240.38,281.126C240.674,283.702 241.619,286.352 243.88,287.793C246.076,289.194 248.842,289.091 251.697,289.106C256.203,289.13 260.709,288.918 265.197,288.603L265.571,288.576C265.832,288.564 265.982,288.57 266.293,288.588ZM367.795,304.052L366.777,304.052L366.777,302.556C366.49,303.12 365.811,304.164 364.349,304.164C361.738,304.164 361.738,301.258 361.738,300.581L361.738,293.47C361.738,290.224 363.591,289.858 364.375,289.858C365.759,289.858 366.307,290.648 366.699,291.212L366.699,284.129L367.795,284.129L367.795,304.052ZM376.255,294.909L375.159,294.909C375.159,293.3 375.159,292.933 375.002,292.369C374.767,291.494 374.193,290.902 373.279,290.902C371.346,290.902 371.346,293.018 371.346,293.526L371.346,299.621C371.346,301.117 371.346,303.008 373.409,303.008C375.237,303.008 375.237,301.202 375.237,300.694L375.237,298.634L376.386,298.634L376.386,300.468C376.386,301.427 376.386,304.136 373.2,304.136C371.608,304.136 370.929,303.12 370.824,302.951C370.25,302.076 370.224,300.919 370.224,299.988L370.224,293.441C370.224,292.736 370.224,289.858 373.226,289.858C376.151,289.858 376.255,292.567 376.255,293.667L376.255,294.909ZM388.554,304.052L387.405,304.052L387.405,284.129L388.501,284.129L388.501,291.071C388.893,290.535 389.494,289.688 390.904,289.688C393.462,289.688 393.462,292.454 393.462,293.47L393.462,300.75C393.462,302.838 392.235,304.136 390.695,304.136C389.389,304.136 388.815,303.29 388.554,302.895L388.554,304.052ZM384.637,304.023L383.514,304.023L383.514,302.697C383.175,303.177 382.496,304.108 381.138,304.108C380.59,304.108 380.094,303.939 379.702,303.657C378.658,302.895 378.658,301.512 378.658,300.778L378.658,289.829L379.754,289.829L379.754,300.496C379.754,301.371 379.859,303.092 381.478,303.092C382.809,303.092 383.279,301.879 383.514,301.258L383.514,289.829L384.637,289.829L384.637,304.023ZM334.556,294.175L333.433,294.175C333.433,292.002 333.433,290.93 331.814,290.93C330.169,290.93 330.169,292.143 330.169,292.764C330.169,294.034 330.222,294.429 332.754,296.687C334.008,297.787 334.739,298.464 334.739,300.552C334.739,301.625 334.53,302.697 333.799,303.374C333.381,303.741 332.728,304.08 331.684,304.08C330.039,304.08 329.438,303.346 329.256,303.12C328.551,302.302 328.551,301.23 328.551,299.057L329.647,299.057L329.647,300.299C329.647,301.173 329.647,302.951 331.684,302.951C332.702,302.951 333.616,302.5 333.616,300.581C333.616,299.085 333.303,298.803 331.423,297.082C329.934,295.727 329.047,294.881 329.047,292.849C329.047,291.635 329.334,289.801 331.814,289.801C334.556,289.801 334.556,292.087 334.556,293.187L334.556,294.175ZM346.358,297.082L346.358,300.581C346.358,302.415 347.22,302.979 348.29,302.979C348.578,302.979 349.596,302.979 349.988,301.794C350.17,301.314 350.17,301.173 350.17,299.142L351.267,299.142L351.267,300.722C351.267,302.866 350.17,304.08 348.238,304.08C347.612,304.08 346.854,303.967 346.175,303.29C345.444,302.612 345.262,301.794 345.262,300.609L345.262,293.187C345.262,291.015 346.332,289.773 348.212,289.773C351.267,289.773 351.267,292.482 351.267,294.231L351.267,297.082L346.358,297.082ZM354.531,297.082L354.531,300.581C354.531,302.415 355.393,302.979 356.463,302.979C356.75,302.979 357.769,302.979 358.16,301.794C358.343,301.314 358.343,301.173 358.343,299.142L359.44,299.142L359.44,300.722C359.44,302.866 358.343,304.08 356.411,304.08C355.784,304.08 355.027,303.967 354.348,303.29C353.617,302.612 353.434,301.794 353.434,300.609L353.434,293.187C353.434,291.015 354.505,289.773 356.385,289.773C359.44,289.773 359.44,292.482 359.44,294.231L359.44,297.082L354.531,297.082ZM401.087,304.052L399.99,304.052L399.99,289.829L401.087,289.829L401.087,291.212C401.27,290.873 401.479,290.507 402.001,290.14C402.419,289.858 402.941,289.688 403.515,289.688C403.881,289.688 404.403,289.773 404.873,290.055C405.996,290.761 405.996,292.087 405.996,292.651L405.996,304.052L404.899,304.052L404.899,292.679C404.899,291.184 404.011,290.732 403.28,290.732C402.627,290.732 401.975,291.071 401.557,291.579C401.296,291.918 401.191,292.2 401.087,292.51L401.087,304.052ZM397.17,304.052L396.074,304.052L396.074,289.829L397.17,289.829L397.17,304.052ZM366.699,301.032C366.699,301.399 366.15,303.092 364.636,303.092C362.834,303.092 362.834,301.032 362.834,300.355L362.834,293.47C362.834,291.099 364.296,290.986 364.662,290.986C366.359,290.986 366.699,293.131 366.699,293.498L366.699,301.032ZM392.366,300.327C392.366,300.863 392.366,301.907 391.713,302.584C391.426,302.895 391.034,303.064 390.616,303.064C389.729,303.064 388.528,302.217 388.528,300.214L388.528,293.385C388.528,291.522 389.598,290.817 390.616,290.817C391.896,290.817 392.366,291.918 392.366,293.413L392.366,300.327ZM341.763,300.242C341.763,301.202 341.763,303.008 340.013,303.008C338.551,303.008 337.977,301.653 337.977,301.399L337.977,292.651C337.977,292.284 338.603,290.789 340.065,290.789C340.64,290.789 341.763,291.099 341.763,293.018L341.763,300.242ZM413.464,300.722C413.464,301.145 412.915,302.866 411.401,302.866C409.677,302.866 409.677,301.06 409.677,300.157L409.677,293.582C409.677,292.679 409.677,290.789 411.479,290.789C412.915,290.789 413.464,292.369 413.464,292.764L413.464,300.722ZM358.317,296.094L358.317,293.47C358.317,293.018 358.317,290.845 356.437,290.845C354.531,290.845 354.531,292.905 354.531,293.582L354.531,296.094L358.317,296.094ZM350.144,296.094L350.144,293.47C350.144,293.018 350.144,290.845 348.264,290.845C346.358,290.845 346.358,292.905 346.358,293.582L346.358,296.094L350.144,296.094ZM200.098,280.029L196.8,280.054C194.321,280.077 191.442,280.052 189.979,281.814C188.95,283.052 189.034,285.014 189.058,286.716C189.094,288.065 189.297,289.543 190.552,289.906C193.626,290.798 197.177,289.822 200.148,288.341L200.098,280.029ZM397.17,288.193L396.074,288.193L396.074,285.992L397.17,285.992L397.17,288.193ZM346.149,285.389L345.027,285.389L345.027,266.595L346.149,266.595L346.149,267.837C346.437,267.413 347.115,266.454 348.578,266.454C349.909,266.454 350.588,267.442 350.849,268.316C351.058,269.022 351.058,269.755 351.058,270.687L351.058,277.572C351.058,280.055 349.57,280.845 348.395,280.845C347.063,280.845 346.489,280.084 346.149,279.632L346.149,285.389ZM402.627,280.789L401.609,280.789L401.609,279.293C401.322,279.858 400.643,280.902 399.181,280.902C396.57,280.902 396.57,277.995 396.57,277.318L396.57,270.207C396.57,266.962 398.424,266.595 399.207,266.595C400.591,266.595 401.139,267.385 401.531,267.949L401.531,260.867L402.627,260.867L402.627,280.789ZM370.198,277.375C370.198,278.588 370.354,279.688 371.477,280.366C372.234,280.845 372.991,280.845 373.226,280.845C373.514,280.845 374.924,280.845 375.759,279.519C376.255,278.729 376.334,277.882 376.334,276.754L376.334,270.009C376.334,269.135 376.334,266.51 373.331,266.51C372.156,266.51 370.198,267.075 370.198,269.925L370.198,277.375ZM406.231,273.819L406.231,277.318C406.231,279.152 407.092,279.717 408.163,279.717C408.45,279.717 409.469,279.717 409.86,278.531C410.043,278.052 410.043,277.911 410.043,275.879L411.14,275.879L411.14,277.459C411.14,279.604 410.043,280.817 408.111,280.817C407.484,280.817 406.727,280.704 406.048,280.027C405.317,279.35 405.134,278.531 405.134,277.346L405.134,269.925C405.134,267.752 406.205,266.51 408.085,266.51C411.14,266.51 411.14,269.219 411.14,270.969L411.14,273.819L406.231,273.819ZM330.039,273.819L330.039,277.318C330.039,279.152 330.901,279.717 331.971,279.717C332.258,279.717 333.277,279.717 333.668,278.531C333.851,278.052 333.851,277.911 333.851,275.879L334.948,275.879L334.948,277.459C334.948,279.604 333.851,280.817 331.919,280.817C331.292,280.817 330.535,280.704 329.856,280.027C329.125,279.35 328.942,278.531 328.942,277.346L328.942,269.925C328.942,267.752 330.013,266.51 331.893,266.51C334.948,266.51 334.948,269.219 334.948,270.969L334.948,273.819L330.039,273.819ZM342.729,270.912L341.606,270.912C341.606,268.74 341.606,267.667 339.987,267.667C338.342,267.667 338.342,268.881 338.342,269.501C338.342,270.771 338.394,271.166 340.927,273.424C342.18,274.524 342.912,275.202 342.912,277.29C342.912,278.362 342.703,279.434 341.972,280.112C341.554,280.479 340.901,280.817 339.857,280.817C338.212,280.817 337.611,280.084 337.428,279.858C336.723,279.039 336.723,277.967 336.723,275.794L337.82,275.794L337.82,277.036C337.82,277.911 337.82,279.688 339.857,279.688C340.875,279.688 341.789,279.237 341.789,277.318C341.789,275.822 341.475,275.54 339.595,273.819C338.107,272.464 337.219,271.618 337.219,269.586C337.219,268.373 337.507,266.539 339.987,266.539C342.729,266.539 342.729,268.824 342.729,269.925L342.729,270.912ZM363.017,280.789L361.92,280.789L361.92,266.567L363.017,266.567L363.017,267.949C363.2,267.611 363.409,267.244 363.931,266.877C364.349,266.595 364.871,266.426 365.445,266.426C365.811,266.426 366.333,266.51 366.803,266.792C367.926,267.498 367.926,268.824 367.926,269.389L367.926,280.789L366.829,280.789L366.829,269.417C366.829,267.921 365.941,267.47 365.21,267.47C364.558,267.47 363.905,267.808 363.487,268.316C363.226,268.655 363.121,268.937 363.017,269.248L363.017,280.789ZM379.833,280.789L378.71,280.789L378.71,260.867L379.833,260.867L379.833,280.789ZM383.566,270.969C383.566,269.078 383.566,267.639 385.316,267.639C386.856,267.639 386.987,268.683 386.987,269.953L386.987,271.59C386.308,272.154 386.125,272.239 384.794,273.001C383.436,273.763 381.895,274.75 381.895,277.459C381.895,279.209 382.626,280.789 384.48,280.789C385.708,280.789 386.439,280.168 387.013,279.688C387.248,280.62 387.744,280.789 388.893,280.789L388.893,279.66C388.501,279.66 388.11,279.632 388.11,279.152L388.11,269.614C388.11,268.74 388.11,266.51 385.446,266.51C382.444,266.51 382.444,268.796 382.444,270.969L383.566,270.969ZM354.714,270.969C354.714,269.078 354.714,267.639 356.463,267.639C358.004,267.639 358.134,268.683 358.134,269.953L358.134,271.59C357.455,272.154 357.273,272.239 355.941,273.001C354.583,273.763 353.043,274.75 353.043,277.459C353.043,279.209 353.774,280.789 355.628,280.789C356.855,280.789 357.586,280.168 358.16,279.688C358.395,280.62 358.892,280.789 360.04,280.789L360.04,279.66C359.649,279.66 359.257,279.632 359.257,279.152L359.257,269.614C359.257,268.74 359.257,266.51 356.594,266.51C353.591,266.51 353.591,268.796 353.591,270.969L354.714,270.969ZM401.531,277.77C401.531,278.136 400.982,279.83 399.468,279.83C397.666,279.83 397.666,277.77 397.666,277.092L397.666,270.207C397.666,267.837 399.129,267.724 399.494,267.724C401.191,267.724 401.531,269.868 401.531,270.235L401.531,277.77ZM349.935,276.979C349.935,277.939 349.935,279.745 348.186,279.745C346.724,279.745 346.149,278.39 346.149,278.136L346.149,269.389C346.149,269.022 346.776,267.526 348.238,267.526C348.813,267.526 349.935,267.837 349.935,269.755L349.935,276.979ZM375.211,277.233C375.211,279.096 374.271,279.688 373.2,279.688C371.32,279.688 371.32,277.826 371.32,277.346L371.32,270.489C371.32,269.558 371.32,267.695 373.357,267.695C375.211,267.695 375.211,269.614 375.211,270.151L375.211,277.233ZM387.013,278.306C386.491,278.927 385.864,279.66 384.715,279.66C383.488,279.66 383.018,278.616 383.018,277.487C383.018,275.399 384.115,274.722 385.446,273.904C386.491,273.283 386.595,273.226 387.013,272.916L387.013,278.306ZM358.16,278.306C357.638,278.927 357.012,279.66 355.863,279.66C354.635,279.66 354.165,278.616 354.165,277.487C354.165,275.399 355.262,274.722 356.594,273.904C357.638,273.283 357.743,273.226 358.16,272.916L358.16,278.306ZM333.825,272.831L333.825,270.207C333.825,269.755 333.825,267.583 331.945,267.583C330.039,267.583 330.039,269.643 330.039,270.32L330.039,272.831L333.825,272.831ZM410.017,272.831L410.017,270.207C410.017,269.755 410.017,267.583 408.137,267.583C406.231,267.583 406.231,269.643 406.231,270.32L406.231,272.831L410.017,272.831ZM248.527,258.694C244.878,258.573 241.775,261.44 240.987,265.974L255.356,266.642C255.069,263.067 253.315,258.967 248.683,258.701C248.631,258.698 248.579,258.696 248.527,258.694ZM367.325,262.334C366.829,262.955 366.594,263.237 366.124,263.237C365.889,263.237 365.785,263.209 364.975,262.814C364.636,262.673 364.27,262.56 363.931,262.56C362.991,262.56 362.416,263.463 361.999,264.112C362.103,264.225 362.286,264.394 362.416,264.479C362.678,264.14 362.991,263.745 363.539,263.745C363.931,263.745 365.471,264.45 365.811,264.45C366.646,264.45 367.116,263.745 367.743,262.701C367.639,262.588 367.456,262.447 367.325,262.334ZM379.833,248.383L378.736,248.383C378.736,246.775 378.736,246.408 378.579,245.844C378.344,244.969 377.77,244.376 376.856,244.376C374.924,244.376 374.924,246.493 374.924,247.001L374.924,253.096C374.924,254.592 374.924,256.482 376.986,256.482C378.814,256.482 378.814,254.676 378.814,254.168L378.814,252.108L379.963,252.108L379.963,253.943C379.963,254.902 379.963,257.611 376.778,257.611C375.185,257.611 374.506,256.595 374.401,256.426C373.827,255.551 373.801,254.394 373.801,253.463L373.801,246.916C373.801,246.211 373.801,243.332 376.804,243.332C379.728,243.332 379.833,246.041 379.833,247.142L379.833,248.383ZM359.127,248.383L358.03,248.383C358.03,246.775 358.03,246.408 357.873,245.844C357.638,244.969 357.064,244.376 356.15,244.376C354.218,244.376 354.218,246.493 354.218,247.001L354.218,253.096C354.218,254.592 354.218,256.482 356.28,256.482C358.108,256.482 358.108,254.676 358.108,254.168L358.108,252.108L359.257,252.108L359.257,253.943C359.257,254.902 359.257,257.611 356.072,257.611C354.479,257.611 353.8,256.595 353.695,256.426C353.121,255.551 353.095,254.394 353.095,253.463L353.095,246.916C353.095,246.211 353.095,243.332 356.098,243.332C359.022,243.332 359.127,246.041 359.127,247.142L359.127,248.383ZM385.76,254.112C385.76,255.325 385.916,256.426 387.039,257.103C387.796,257.583 388.554,257.583 388.789,257.583C389.076,257.583 390.486,257.583 391.321,256.257C391.817,255.466 391.896,254.62 391.896,253.491L391.896,246.747C391.896,245.872 391.896,243.248 388.893,243.248C387.718,243.248 385.76,243.812 385.76,246.662L385.76,254.112ZM344.635,254.112C344.635,255.325 344.792,256.426 345.914,257.103C346.672,257.583 347.429,257.583 347.664,257.583C347.951,257.583 349.361,257.583 350.197,256.257C350.693,255.466 350.771,254.62 350.771,253.491L350.771,246.747C350.771,245.872 350.771,243.248 347.768,243.248C346.593,243.248 344.635,243.812 344.635,246.662L344.635,254.112ZM342.729,247.65L341.606,247.65C341.606,245.477 341.606,244.405 339.987,244.405C338.342,244.405 338.342,245.618 338.342,246.239C338.342,247.509 338.394,247.904 340.927,250.161C342.18,251.262 342.912,251.939 342.912,254.027C342.912,255.1 342.703,256.172 341.972,256.849C341.554,257.216 340.901,257.555 339.857,257.555C338.212,257.555 337.611,256.821 337.428,256.595C336.723,255.777 336.723,254.704 336.723,252.532L337.82,252.532L337.82,253.773C337.82,254.648 337.82,256.426 339.857,256.426C340.875,256.426 341.789,255.974 341.789,254.055C341.789,252.56 341.475,252.278 339.595,250.556C338.107,249.202 337.219,248.355 337.219,246.324C337.219,245.11 337.507,243.276 339.987,243.276C342.729,243.276 342.729,245.562 342.729,246.662L342.729,247.65ZM395.447,257.526L394.35,257.526L394.35,243.304L395.447,243.304L395.447,244.687C395.63,244.348 395.839,243.981 396.361,243.615C396.779,243.332 397.301,243.163 397.875,243.163C398.241,243.163 398.763,243.248 399.233,243.53C400.356,244.235 400.356,245.562 400.356,246.126L400.356,257.526L399.259,257.526L399.259,246.154C399.259,244.659 398.371,244.207 397.64,244.207C396.987,244.207 396.335,244.546 395.917,245.054C395.656,245.392 395.551,245.674 395.447,245.985L395.447,257.526ZM366.438,247.706C366.438,245.816 366.438,244.376 368.187,244.376C369.728,244.376 369.858,245.421 369.858,246.69L369.858,248.327C369.179,248.891 368.996,248.976 367.665,249.738C366.307,250.5 364.766,251.488 364.766,254.197C364.766,255.946 365.498,257.526 367.351,257.526C368.579,257.526 369.31,256.906 369.884,256.426C370.119,257.357 370.615,257.526 371.764,257.526L371.764,256.398C371.373,256.398 370.981,256.369 370.981,255.89L370.981,246.352C370.981,245.477 370.981,243.248 368.318,243.248C365.315,243.248 365.315,245.533 365.315,247.706L366.438,247.706ZM330.222,247.706C330.222,245.816 330.222,244.376 331.971,244.376C333.512,244.376 333.642,245.421 333.642,246.69L333.642,248.327C332.963,248.891 332.781,248.976 331.449,249.738C330.091,250.5 328.551,251.488 328.551,254.197C328.551,255.946 329.282,257.526 331.136,257.526C332.363,257.526 333.094,256.906 333.668,256.426C333.903,257.357 334.399,257.526 335.548,257.526L335.548,256.398C335.157,256.398 334.765,256.369 334.765,255.89L334.765,246.352C334.765,245.477 334.765,243.248 332.102,243.248C329.099,243.248 329.099,245.533 329.099,247.706L330.222,247.706ZM383.358,257.526L382.261,257.526L382.261,243.304L383.358,243.304L383.358,257.526ZM362.651,257.526L361.555,257.526L361.555,243.304L362.651,243.304L362.651,257.526ZM349.648,253.971C349.648,255.833 348.708,256.426 347.638,256.426C345.758,256.426 345.758,254.563 345.758,254.084L345.758,247.227C345.758,246.295 345.758,244.433 347.794,244.433C349.648,244.433 349.648,246.352 349.648,246.888L349.648,253.971ZM390.773,253.971C390.773,255.833 389.833,256.426 388.763,256.426C386.883,256.426 386.883,254.563 386.883,254.084L386.883,247.227C386.883,246.295 386.883,244.433 388.919,244.433C390.773,244.433 390.773,246.352 390.773,246.888L390.773,253.971ZM369.884,255.043C369.362,255.664 368.735,256.398 367.586,256.398C366.359,256.398 365.889,255.354 365.889,254.225C365.889,252.137 366.986,251.459 368.318,250.641C369.362,250.02 369.466,249.964 369.884,249.653L369.884,255.043ZM333.668,255.043C333.146,255.664 332.519,256.398 331.371,256.398C330.143,256.398 329.673,255.354 329.673,254.225C329.673,252.137 330.77,251.459 332.102,250.641C333.146,250.02 333.251,249.964 333.668,249.653L333.668,255.043ZM362.651,241.667L361.555,241.667L361.555,239.466L362.651,239.466L362.651,241.667ZM383.358,241.667L382.261,241.667L382.261,239.466L383.358,239.466L383.358,241.667ZM388.136,241.526L387.196,241.526L389.389,238.45L391.87,238.45L388.136,241.526Z" style="fill:rgb(0,54,114);"/>
    </g>
</svg>
