<?xml version="1.0" standalone="no"?>
<!DOCTYPE svg PUBLIC "-//W3C//DTD SVG 20010904//EN"
 "http://www.w3.org/TR/2001/REC-SVG-20010904/DTD/svg10.dtd">
<svg version="1.0" xmlns="http://www.w3.org/2000/svg"
 width="1280.000000pt" height="1280.000000pt" viewBox="0 0 1280.000000 1280.000000"
 preserveAspectRatio="xMidYMid meet">
<metadata>
Created by potrace 1.15, written by Peter Selinger 2001-2017
</metadata>
<g transform="translate(0.000000,1280.000000) scale(0.100000,-0.100000)"
fill="#000000" stroke="none">
<path d="M275 12711 c-8 -16 -23 -32 -33 -35 -11 -4 -24 -17 -30 -30 -6 -13
-20 -27 -31 -31 -11 -3 -23 -15 -26 -26 -4 -11 -17 -25 -30 -31 -12 -5 -28
-21 -33 -33 -6 -13 -20 -26 -31 -30 -12 -3 -21 -12 -21 -18 0 -7 0 -786 0
-1732 0 -1633 1 -1721 17 -1732 39 -27 44 -35 38 -63 -5 -22 -1 -33 15 -48 34
-31 37 -34 85 -84 l44 -48 1781 0 1781 0 104 105 105 104 0 1776 0 1776 -76
74 c-68 68 -79 75 -114 75 -34 0 -42 4 -55 30 l-16 30 -1729 0 -1729 0 -16
-29z"/>
<path d="M4563 12605 l-133 -134 0 -1723 0 -1723 30 -17 c26 -15 30 -22 30
-63 0 -25 5 -45 10 -45 14 0 120 -106 120 -120 0 -7 580 -10 1795 -10 1110 0
1795 4 1795 9 0 13 167 181 180 181 7 0 10 563 10 1785 l0 1786 -75 74 c-64
65 -79 75 -109 75 -27 0 -39 7 -56 30 l-21 30 -1722 -1 -1722 0 -132 -134z"/>
<path d="M9068 12715 c-6 -14 -15 -25 -19 -25 -4 0 -57 -49 -118 -110 l-111
-110 0 -1719 0 -1720 30 -21 c23 -17 30 -29 30 -56 0 -30 10 -45 75 -109 l74
-75 1780 0 1780 0 106 106 105 106 0 1773 c0 1599 -2 1775 -16 1789 -8 9 -20
16 -25 16 -5 0 -15 11 -21 25 -6 13 -19 27 -30 31 -10 3 -25 19 -33 35 -14 25
-21 29 -60 29 -39 0 -46 3 -60 30 l-16 30 -1729 0 -1730 0 -12 -25z"/>
<path d="M167 8269 c-67 -69 -76 -83 -71 -106 6 -21 1 -31 -25 -52 l-31 -26
-1 -1725 0 -1725 26 -20 c17 -14 25 -31 25 -53 0 -24 11 -43 50 -83 42 -43 54
-51 77 -46 22 4 33 -2 58 -29 l31 -34 1745 0 c959 0 1749 4 1755 8 6 4 16 17
23 30 9 17 20 22 51 22 24 0 44 6 52 16 17 20 42 45 62 62 14 12 16 192 16
1852 0 1660 -2 1840 -16 1852 -20 17 -45 42 -63 63 -9 12 -22 15 -43 11 -28
-6 -36 -1 -76 48 -12 14 -186 16 -1790 15 l-1777 0 -78 -80z m3585 -55 c44
-54 45 -54 106 -48 44 5 60 3 70 -9 10 -11 12 -382 12 -1738 l1 -1724 -26 -20
c-18 -15 -25 -30 -25 -57 0 -47 -24 -72 -62 -64 -28 6 -36 1 -76 -48 -12 -14
-181 -16 -1729 -16 l-1717 0 -32 35 c-26 29 -36 34 -61 29 -19 -4 -33 -1 -41
8 -9 11 -12 425 -12 1709 l-1 1694 32 26 c31 25 32 28 26 80 -9 72 10 104 56
95 25 -5 34 -1 61 29 l31 35 1687 0 c1522 0 1688 -2 1700 -16z"/>
<path d="M4590 8300 c-27 -28 -50 -55 -50 -59 0 -4 -11 -13 -25 -19 -21 -10
-25 -18 -25 -57 0 -39 -3 -46 -30 -60 l-30 -16 0 -1727 0 -1728 30 -22 c23
-18 30 -30 30 -58 0 -28 9 -43 46 -79 38 -37 51 -44 82 -43 21 1 38 -4 40 -12
3 -7 13 -21 23 -31 18 -18 71 -19 1769 -19 l1751 0 17 30 c17 30 26 34 70 30
15 -1 37 14 67 45 l45 46 0 1840 0 1840 -46 44 c-38 37 -51 44 -82 43 -21 -1
-38 4 -40 12 -3 7 -13 21 -23 31 -18 18 -72 19 -1794 19 l-1774 0 -51 -50z
m3558 -89 c9 -11 23 -27 30 -36 11 -13 24 -15 67 -10 33 5 61 3 74 -4 l21 -12
0 -1724 c0 -1538 -2 -1726 -15 -1737 -40 -34 -45 -42 -45 -78 0 -45 -17 -59
-70 -58 -20 1 -36 -4 -38 -12 -3 -7 -13 -21 -23 -31 -18 -18 -70 -19 -1734
-19 -1681 0 -1715 0 -1732 19 -10 11 -24 27 -31 35 -8 10 -22 14 -40 10 -19
-4 -34 0 -45 11 -16 15 -17 144 -17 1710 l0 1694 30 16 c29 15 30 17 30 90 0
64 3 76 20 85 11 6 30 8 44 4 16 -4 28 0 37 11 8 9 22 25 32 36 17 19 51 19
1702 19 1651 0 1685 0 1703 -19z"/>
<path d="M9018 8335 c-7 -9 -34 -37 -60 -63 -26 -26 -54 -53 -63 -60 -9 -8
-15 -29 -15 -52 0 -31 -5 -42 -22 -51 -13 -7 -26 -17 -30 -23 -4 -6 -8 -783
-8 -1726 0 -943 4 -1720 8 -1726 4 -6 17 -16 30 -23 17 -9 22 -20 22 -51 0
-24 6 -44 16 -52 20 -17 45 -42 62 -63 9 -10 26 -15 49 -13 25 2 39 -3 49 -17
7 -11 18 -26 24 -32 9 -10 373 -13 1760 -13 l1749 0 23 30 c17 23 30 30 57 30
30 0 45 9 83 49 l47 48 1 1833 0 1833 -50 50 c-41 41 -54 49 -77 44 -22 -4
-33 2 -58 29 l-31 34 -1777 0 c-1591 0 -1778 -2 -1789 -15z m3538 -140 c31
-35 33 -35 88 -29 39 5 60 3 71 -6 13 -11 15 -208 15 -1739 l0 -1727 -31 -27
c-25 -22 -30 -32 -24 -56 8 -39 -17 -65 -58 -57 -25 5 -34 0 -61 -29 l-32 -35
-1717 0 c-1548 0 -1717 2 -1729 16 -40 49 -48 54 -77 48 -22 -5 -32 -1 -45 17
-15 21 -16 168 -16 1706 0 1333 3 1684 13 1693 6 6 21 17 31 24 16 11 19 24
17 78 -2 78 14 103 61 94 28 -6 36 -1 76 48 12 14 178 16 1699 16 l1687 0 32
-35z"/>
<path d="M278 3985 c-6 -14 -15 -25 -19 -25 -4 0 -30 -23 -57 -51 -28 -28 -55
-56 -61 -63 -25 -24 -52 -51 -59 -59 -4 -4 -15 -13 -25 -20 -16 -11 -17 -100
-17 -1742 0 -1293 2 -1731 11 -1734 29 -9 50 -43 44 -70 -6 -28 14 -61 36 -61
5 0 15 -11 21 -25 6 -13 19 -27 30 -31 10 -3 25 -19 33 -35 l16 -29 1784 0
1784 0 105 105 106 105 0 1775 0 1776 -75 74 c-64 65 -79 75 -109 75 -27 0
-39 7 -56 30 l-21 30 -1730 0 -1729 0 -12 -25z"/>
<path d="M4680 4000 c0 -6 -52 -62 -115 -125 -63 -63 -119 -115 -125 -115 -7
0 -10 -571 -10 -1729 l0 -1730 30 -21 c23 -17 30 -29 30 -56 0 -30 10 -45 75
-109 l74 -75 1776 0 1776 0 104 105 105 104 0 1786 c0 1209 -3 1785 -10 1785
-14 0 -120 106 -120 120 0 5 -20 10 -45 10 -41 0 -48 4 -63 30 l-17 30 -1732
0 c-1161 0 -1733 -3 -1733 -10z"/>
<path d="M8952 3874 l-132 -134 2 -1722 3 -1723 28 -13 c23 -11 27 -19 27 -53
0 -36 7 -46 76 -114 l75 -75 1784 0 1784 0 16 29 c8 16 23 32 33 35 11 4 24
17 30 30 6 13 19 27 30 30 10 4 24 18 30 31 6 14 16 25 21 25 5 0 17 7 25 16
14 14 16 190 16 1789 l0 1773 -75 76 c-63 63 -81 76 -108 76 -38 0 -50 7 -66
38 l-12 22 -1727 -1 -1727 0 -133 -135z"/>
</g>
</svg>
