<?xml version="1.0" encoding="UTF-8" standalone="no"?>
<!DOCTYPE svg PUBLIC "-//W3C//DTD SVG 1.1//EN" "http://www.w3.org/Graphics/SVG/1.1/DTD/svg11.dtd">
<svg width="100%" height="100%" viewBox="0 0 3000 3000" version="1.1" xmlns="http://www.w3.org/2000/svg" xmlns:xlink="http://www.w3.org/1999/xlink" xml:space="preserve" xmlns:serif="http://www.serif.com/" style="fill-rule:evenodd;clip-rule:evenodd;stroke-linejoin:round;stroke-miterlimit:2;">
    <path d="M775.008,395.475C1090.99,213.277 1371.19,99.461 1606.26,46.007C1710.69,22.28 1735.43,81.093 1682.35,113.058C1590.93,168.113 1534.91,201.466 1473.12,264.331C1446.62,291.258 1471.12,321.945 1502.5,302.296C1663.31,201.652 1730.95,163.553 1844.74,134.414C1930.83,112.393 1967.54,159.155 1916.72,196.106C1881.37,221.78 1870.87,231.965 1872.55,251.534C1873.93,267.638 1890.49,278.994 1936.18,258.572C1986.49,236.071 2109.26,192.588 2124.91,188.108C2266.64,147.531 2347.72,222.5 2377.71,284.86C2394.35,319.491 2412.1,357.669 2430.71,398.674C2449.96,401.899 2534.58,411.711 2553.46,413.044C2692.89,422.775 2743.52,554.745 2743.63,694.233C2743.71,798.662 2734.83,910.424 2721.84,1091.77C2822.41,1343.53 2915.56,1587.12 2974.11,1747.89C3047.9,1950.64 2957.98,2103.57 2780.26,2196.37C2758.08,2207.94 2747.2,2213.01 2725.47,2224.26C2724.08,2269.66 2715.29,2470.6 2713.42,2497.08C2697.34,2723.64 2612.94,2747.39 2350.3,2749.05C2148.53,2750.3 2028.83,2742.22 1644.17,2737.18C1496.34,2801.03 1369.3,2856.27 1290.28,2890.27C1071.71,2984.22 902.126,3015.17 769.676,2768.96C757.811,2746.86 753.679,2740.17 741.948,2717.96C662.207,2717.77 531.117,2718.12 482.328,2718.39C262.778,2719.64 248.568,2634.75 245.288,2407.1C243.769,2301.79 253.26,1972 255.34,1703.95C194.34,1571.93 146.511,1475.5 90.657,1359.28C13.367,1198.44 -77.012,1007.73 144.352,824.843C185.782,790.639 229.825,756.112 276.028,721.561C276.188,707.271 277.334,612.251 277.334,612.251C276.641,504.73 287.785,391.821 456.867,388.409C491.846,387.716 731.311,395.875 775.008,395.475ZM1090.8,2524.78C1080.43,2561.28 1051.27,2607.21 984.88,2605.69C791.271,2601.18 584.918,2602.84 503.123,2598.07C318.312,2587.24 342.013,2494.06 338.6,2286.46C337.614,2225.62 342.813,2144.12 343.879,2008.57C344.466,1931.68 402.266,1951.44 403.839,2016.79C406.505,2127.13 413.117,2221.33 411.437,2279.63C406.105,2464.1 422.608,2517.2 546.687,2529.36C614.191,2535.97 785.059,2532.53 945.209,2536.99C1016.53,2538.96 1049.29,2462.74 1050.94,2430.26C1057.21,2306.48 1056.12,2230.36 1060.41,2042.09C1062.76,1939.52 1128.9,1930.06 1128.58,2044.94C1128.13,2213.78 1128.47,2295.28 1126.34,2425.92C1125.25,2492.78 1173.32,2540.03 1240.08,2543.47C1425.93,2553.09 1611.06,2552.85 1792.75,2562.42C1843.88,2565.11 1886.43,2502.78 1888.41,2479C1901.23,2325.49 1893.05,2218.5 1898.25,2027.64C1900.73,1936.35 1970.02,1953.95 1970.87,2028.54C1972.98,2211.94 1974.82,2327.99 1971.99,2477.72C1971.4,2508.49 2008.09,2561.25 2061.78,2564.42C2167.28,2570.63 2387.55,2570.47 2463.16,2568.77C2564.92,2566.45 2565.64,2468.82 2569.35,2360.71C2570.87,2316.34 2578.92,2143.93 2580.46,2046.51C2581.77,1965.57 2636.18,1979.86 2637.84,2063.07C2640.21,2181.41 2630.88,2377.48 2629.09,2423.2C2624.75,2534.56 2624,2635.15 2500.99,2637.6C2409.57,2639.39 2143.28,2639.71 2015.74,2633.37C1963.46,2630.78 1940.21,2595.29 1933.49,2565.01C1924.51,2593.64 1898.27,2633.63 1848.79,2631.42C1629.13,2621.69 1405.32,2622.03 1180.65,2612.25C1117.04,2609.45 1096.4,2561.49 1090.8,2524.78ZM2650.02,1249.44C2649.97,1216.6 2620.45,1154.61 2560.39,1154.29C2416.45,1153.54 2230.57,1156.1 2059.78,1149.97C1996.14,1147.68 1978.25,1211.58 1977.64,1236.06C1976.1,1296.1 1972.58,1340.06 1970.28,1388.8C1963.75,1527.03 1963.4,1687.26 1956.23,1850.9C1955.14,1875.8 1968.31,1926.83 2017.07,1929.02C2177.49,1936.24 2392.51,1947.84 2565.03,1944.59C2624.43,1943.47 2648.42,1892.63 2648.63,1865.03C2650.26,1664.41 2650.37,1435.48 2650.02,1249.44ZM1814.03,1146.45C1841.97,1147.01 1891.61,1168.69 1890.89,1248.43C1889.66,1383.22 1878.38,1608.56 1874.22,1850.16C1873.8,1875.03 1844.92,1920.19 1801.34,1918.54C1674.4,1913.8 1579.14,1912.2 1471.28,1908.36C1397.72,1905.74 1308.75,1903.82 1212.24,1902.46C1181.85,1902.01 1123.22,1864.21 1124.42,1811.77C1128.42,1634.45 1142.42,1366.43 1148.34,1234.32C1153.48,1119.63 1232.77,1137.57 1287.37,1138.59C1407.98,1140.82 1590.85,1142.08 1814.03,1146.45ZM427.807,1105.85C393.441,1104.75 345.132,1131.68 342.759,1187.45C337.748,1305.43 333.269,1570.75 338.201,1808.81C339.16,1855.91 372.486,1899.13 417.889,1899.8C573.001,1902.07 780.18,1902.12 981.388,1900.17C1034.55,1899.66 1059.21,1839.55 1059.82,1809.74C1064.43,1582.75 1072.22,1387.33 1075.15,1257.7C1076.78,1186.36 1072.59,1129.95 974.376,1123.55C758.292,1109.42 540.075,1109.39 427.807,1105.85ZM1172.36,999.017C1169.56,1072.92 1097.07,1088.38 1097.58,983.314C1098.08,874.646 1103.49,763.578 1103.76,630.727C1103.84,587.724 1067.61,544.375 1031.62,543.895C905.485,542.214 638.212,530.698 557.351,529.871C468.171,528.965 426.341,557.731 425.967,667.839C425.967,667.839 422.741,882.963 419.169,980.942C416.93,1042.63 350.038,1066.17 349.665,967.078C349.291,866.115 354.73,608.226 354.73,608.226C355.05,494.785 405.545,465.138 513.387,466.018C611.125,466.791 934.252,478.522 1086.75,480.175C1115.54,480.494 1134.82,498.571 1143.86,523.605C1154.49,500.784 1177.1,477.962 1218.03,478.63C1450,482.414 1634.01,483.908 1857,489.213C1883.13,489.827 1933.81,507.155 1950.29,549.439C1962.55,523.312 1996.68,488.52 2033.39,488.6C2138.8,488.866 2401.44,485.081 2466.01,487.88C2653.81,496.038 2661.57,591.937 2659.78,834.868C2659.78,834.868 2655.27,994.511 2650.69,1083.29C2649.65,1103.85 2598.01,1133.89 2595.85,1063.8C2593.07,973.769 2590.25,816.606 2590.25,816.606C2582.36,626.942 2610.06,560.103 2454.73,552.106C2401.3,549.333 2185.86,552.905 2098.65,552.639C2060.72,552.506 2013.61,590.176 2010.38,645.924C2004.52,747.421 1996.97,985.9 1996.44,1012.37C1994.68,1098.38 1912.86,1111.07 1914.59,1022.13C1917.17,891.014 1925.2,755.712 1923.52,640.645C1922.61,578.34 1834.66,553.811 1808.53,553.092C1624.1,547.839 1470.08,546.267 1278.2,542.481C1227.68,541.494 1189.39,609.293 1188.81,634.06C1186.01,752.674 1176.78,880.965 1172.36,999.017Z"/>
</svg>
