<?xml version="1.0" encoding="UTF-8" standalone="no"?>
<!DOCTYPE svg PUBLIC "-//W3C//DTD SVG 1.1//EN" "http://www.w3.org/Graphics/SVG/1.1/DTD/svg11.dtd">
<svg width="100%" height="100%" viewBox="0 0 3544 3544" version="1.1" xmlns="http://www.w3.org/2000/svg" xmlns:xlink="http://www.w3.org/1999/xlink" xml:space="preserve" xmlns:serif="http://www.serif.com/" style="fill-rule:evenodd;clip-rule:evenodd;stroke-linejoin:round;stroke-miterlimit:2;">
    <g transform="matrix(22.8539,0,0,22.8539,-5024.22,-1980.29)">
        <path d="M259.644,107.068C275.98,97.649 290.466,91.765 302.619,89.002C308.018,87.774 309.297,90.815 306.553,92.468C301.826,95.314 298.931,97.038 295.735,100.288C294.366,101.68 295.632,103.266 297.255,102.25C305.568,97.048 309.065,95.078 314.948,93.572C319.398,92.433 321.296,94.851 318.669,96.761C316.841,98.089 316.298,98.615 316.385,99.627C316.457,100.459 317.312,101.046 319.676,99.99C322.277,98.827 328.623,96.579 329.432,96.348C336.759,94.25 340.952,98.126 342.501,101.349C343.362,103.14 344.28,105.113 345.241,107.233C346.237,107.401 350.612,107.908 351.587,107.976C358.796,108.48 361.413,115.302 361.419,122.514C361.423,127.912 360.965,133.69 360.293,143.067C365.492,156.082 370.308,168.675 373.334,176.986C377.151,187.468 372.501,195.374 363.312,200.172C362.166,200.771 361.603,201.032 360.481,201.613C360.409,203.962 359.954,214.349 359.857,215.718C359.026,227.432 354.662,228.659 341.085,228.744C330.654,228.81 324.465,228.392 304.578,228.132C296.936,231.432 290.369,234.289 286.282,236.045C274.983,240.903 266.216,242.503 259.368,229.774C258.755,228.632 258.54,228.286 257.935,227.137C253.812,227.128 247.036,227.146 244.513,227.16C233.163,227.224 232.428,222.836 232.258,211.066C232.18,205.622 232.67,188.572 232.778,174.714C229.624,167.888 227.151,162.903 224.264,156.895C220.268,148.58 215.596,138.721 227.04,129.266C229.181,127.497 231.459,125.712 233.847,123.927C233.856,123.187 233.915,118.275 233.915,118.275C233.88,112.717 234.455,106.879 243.197,106.703C245.004,106.667 257.385,107.089 259.644,107.068Z" style="fill:rgb(0,64,128);"/>
    </g>
    <g transform="matrix(22.8539,0,0,22.8539,-5024.22,-1980.29)">
        <path d="M356.58,151.218C356.577,149.52 355.052,146.315 351.946,146.298C344.504,146.26 334.895,146.391 326.065,146.074C322.775,145.957 321.851,149.26 321.818,150.525C321.739,153.629 321.557,155.902 321.438,158.421C321.1,165.568 321.082,173.852 320.712,182.312C320.655,183.6 321.336,186.237 323.857,186.351C332.151,186.723 343.267,187.324 352.185,187.156C355.256,187.098 356.497,184.469 356.508,183.043C356.592,172.67 356.598,160.834 356.58,151.218ZM313.36,145.893C314.805,145.921 317.371,147.042 317.334,151.166C317.27,158.135 316.688,169.782 316.472,182.274C316.449,183.559 314.957,185.894 312.704,185.809C306.142,185.563 301.217,185.48 295.64,185.282C291.837,185.147 287.238,185.048 282.249,184.977C280.677,184.955 277.646,183 277.708,180.288C277.915,171.121 278.639,157.265 278.945,150.436C279.211,144.507 283.309,145.433 286.132,145.486C292.369,145.603 301.822,145.666 313.36,145.893ZM241.694,143.793C239.917,143.736 237.42,145.13 237.297,148.013C237.039,154.111 236.806,167.829 237.061,180.135C237.112,182.571 238.834,184.805 241.181,184.839C249.2,184.957 259.911,184.959 270.314,184.859C273.061,184.833 274.337,181.725 274.369,180.184C274.607,168.449 275.01,158.346 275.162,151.645C275.246,147.955 275.029,145.041 269.951,144.708C258.778,143.978 247.498,143.978 241.694,143.793Z" style="fill:rgb(255,225,0);"/>
    </g>
    <g transform="matrix(22.8539,0,0,22.8539,-5024.22,-1980.29)">
        <path d="M356.179,195.542C356.205,194.026 355.469,190.195 351.346,190.072C342.319,189.802 332.596,189.075 324.049,189.072C321.852,189.071 320.222,191.81 320.124,193.193C319.436,202.945 319.592,210.197 319.425,218.171C319.391,219.81 320.433,222.598 323.789,222.765C330.382,223.092 344.149,223.076 348.875,222.983C355.234,222.857 355.273,217.656 355.497,211.898C355.59,209.535 356.089,200.731 356.179,195.542ZM312.324,222.664C315.29,222.806 316.516,219.544 316.561,218.274C316.832,210.58 317.097,203.459 317.126,193.29C317.134,190.262 313.535,188.881 312.554,188.866C302.201,188.714 293.431,188.667 287.503,188.434C285.365,188.35 282.897,188.238 280.206,188.106C278.904,188.042 276.238,189.478 276.232,192.665C276.217,201.658 275.993,208.843 275.878,215.802C275.849,217.546 276.401,221.49 280.273,221.672C291.052,222.179 301.788,222.161 312.324,222.664ZM267.694,221.333C271.779,221.436 272.889,217.398 272.937,215.667C273.141,208.243 273.014,202.618 273.082,192.588C273.091,191.29 272.474,187.767 268.747,187.681C259.902,187.478 249.471,186.841 241.022,186.743C238.508,186.714 237.112,189.978 237.106,191.181C237.072,198.188 237.033,201.684 237.081,204.83C237.242,215.563 236.119,220.38 244.873,220.939C248.748,221.186 258.523,221.101 267.694,221.333ZM351.973,144.225C355.477,144.332 356.652,138.849 356.647,137.562C356.628,132.765 356.61,129.771 356.61,129.771C356.7,117.211 356.773,112.266 347.239,111.845C343.96,111.7 330.102,111.827 324.749,111.815C322.42,111.809 320.293,114.622 320.287,115.856C320.251,122.642 320.537,131.531 320.452,138.504C320.432,140.103 321.869,143.351 324.492,143.468C333.24,143.856 344.489,143.996 351.973,144.225ZM317.016,116.505C317.041,113.187 313.908,111.884 312.442,111.845C302.096,111.571 294.039,111.563 283.276,111.367C280.442,111.315 279.502,113.97 279.471,115.29C279.322,121.607 278.938,130.662 278.892,136.953C278.873,139.526 279.418,141.324 282.495,141.464C286.572,141.65 290.89,141.684 294.084,141.811C300.295,142.056 306.566,142.573 312.811,142.676C314.095,142.697 316.357,141.927 316.631,138.727C317.194,132.16 316.969,122.797 317.016,116.505ZM241.323,141.016C247.783,141.082 259.772,141.315 271.039,141.186C273.854,141.154 274.777,138.299 274.887,136.634C275.269,130.857 275.231,122.35 275.567,115.88C275.686,113.592 274.652,111.472 272.59,111.448C265.361,111.361 250.043,110.756 245.41,110.715C240.298,110.669 237.904,112.203 237.889,118.067C237.889,118.067 237.646,131.123 237.586,136.343C237.571,137.663 238.024,140.981 241.323,141.016Z" style="fill:rgb(237,28,36);"/>
    </g>
</svg>
