<?xml version="1.0" standalone="no"?>
<!DOCTYPE svg PUBLIC "-//W3C//DTD SVG 20010904//EN"
 "http://www.w3.org/TR/2001/REC-SVG-20010904/DTD/svg10.dtd">
<svg version="1.0" xmlns="http://www.w3.org/2000/svg"
 width="1280.000000pt" height="1280.000000pt" viewBox="0 0 1280.000000 1280.000000"
 preserveAspectRatio="xMidYMid meet">
<metadata>
Created by potrace 1.15, written by Peter Selinger 2001-2017
</metadata>
<g transform="translate(0.000000,1280.000000) scale(0.100000,-0.100000)"
fill="#000000" stroke="none">
<path d="M250 12720 c-6 -11 -19 -20 -28 -20 -10 0 -22 -12 -29 -30 -7 -19
-18 -30 -30 -30 -12 0 -23 -11 -30 -30 -7 -19 -18 -30 -30 -30 -12 0 -23 -11
-30 -30 -6 -16 -18 -30 -27 -30 -15 0 -16 -160 -16 -1764 0 -1756 0 -1765 20
-1771 17 -5 20 -15 20 -59 0 -51 1 -54 29 -59 19 -4 31 -14 35 -30 3 -15 16
-27 31 -31 23 -6 29 -18 28 -53 -1 -10 371 -13 1828 -13 l1829 0 0 29 c0 23 6
31 30 40 20 6 30 17 30 30 0 12 10 23 30 30 19 6 30 17 30 29 0 21 18 32 51
32 19 0 19 33 19 1824 l0 1825 -32 3 c-25 2 -34 9 -38 28 -4 15 -15 26 -30 30
-19 4 -26 13 -28 39 -3 32 -4 33 -50 31 -65 -3 -72 -2 -72 15 0 13 -203 15
-1765 15 -1754 0 -1764 0 -1775 -20z"/>
<path d="M4642 12720 c-7 -11 -21 -20 -32 -20 -13 0 -20 -7 -20 -18 0 -23 -19
-42 -42 -42 -11 0 -18 -7 -18 -18 0 -23 -19 -42 -42 -42 -11 0 -18 -7 -18 -18
0 -25 -19 -42 -47 -42 l-23 0 0 -1765 0 -1765 23 0 c35 0 44 -16 39 -70 -4
-48 -3 -50 20 -50 28 0 48 -17 48 -42 0 -11 7 -18 18 -18 25 0 42 -19 42 -47
l0 -23 1825 0 1825 0 0 23 c0 28 17 47 42 47 11 0 18 7 18 18 0 23 19 42 42
42 11 0 18 7 18 18 0 25 19 42 47 42 l23 0 0 1825 0 1825 -23 0 c-28 0 -47 17
-47 42 0 11 -7 18 -18 18 -25 0 -42 20 -42 48 0 23 -2 24 -51 20 -42 -4 -53
-2 -62 13 -11 18 -67 19 -1772 19 -1749 0 -1760 0 -1773 -20z"/>
<path d="M9037 12721 c-2 -11 -15 -21 -28 -23 -15 -2 -25 -12 -29 -28 -4 -15
-14 -26 -27 -28 -13 -2 -25 -14 -31 -32 -7 -18 -19 -30 -33 -32 -15 -2 -25
-12 -29 -28 -4 -19 -13 -26 -38 -28 l-32 -3 0 -1765 0 -1764 23 0 c41 0 49
-13 41 -68 -6 -48 -5 -52 14 -52 34 0 52 -11 52 -32 0 -12 11 -23 30 -29 24
-9 30 -17 30 -40 l0 -29 1829 0 c1457 0 1829 3 1828 13 -1 35 5 47 28 53 15 4
28 16 31 30 4 14 16 27 30 30 14 4 27 16 30 30 3 13 15 26 25 29 19 6 19 47
19 1831 0 1659 -1 1824 -16 1824 -9 0 -21 14 -27 30 -7 18 -19 30 -30 30 -19
0 -38 37 -29 59 4 12 -5 13 -52 8 -52 -5 -59 -4 -63 14 -5 19 -32 19 -1773 19
-1733 0 -1768 0 -1773 -19z"/>
<path d="M196 8349 c-4 -20 -13 -33 -26 -36 -12 -3 -27 -18 -36 -34 -10 -20
-22 -29 -39 -29 -24 0 -25 -3 -25 -56 0 -47 -3 -57 -20 -61 -20 -5 -20 -14
-20 -1773 0 -1759 0 -1768 20 -1773 17 -4 20 -14 20 -61 0 -53 1 -56 25 -56
25 0 48 -28 43 -52 -2 -9 12 -13 49 -13 57 0 66 -5 68 -38 l2 -22 1794 0 1794
0 5 30 c5 29 7 30 60 30 53 0 55 1 60 30 4 25 10 31 38 33 l32 3 0 1889 0
1889 -32 3 c-28 2 -34 8 -38 33 -5 29 -7 30 -60 30 -53 0 -55 1 -60 30 l-5 30
-1821 3 -1821 2 -7 -31z m3551 -179 l6 -30 83 0 84 0 0 -1720 0 -1720 -30 0
-30 0 0 -60 0 -60 -54 0 c-51 0 -54 -1 -59 -30 l-7 -30 -1720 0 -1720 0 0 30
0 30 -60 0 -60 0 0 1690 0 1690 29 0 c25 0 31 5 36 31 4 16 4 57 0 90 l-7 59
61 0 c57 0 61 1 61 23 0 13 3 27 7 30 3 4 764 7 1690 7 l1683 0 7 -30z"/>
<path d="M4590 8349 c0 -24 -6 -32 -29 -40 -19 -7 -31 -19 -33 -32 -2 -17 -11
-23 -36 -25 -33 -3 -33 -4 -32 -50 3 -71 2 -72 -30 -72 l-30 0 0 -1770 0
-1770 30 0 c32 0 33 -1 30 -72 -1 -46 -1 -47 32 -50 29 -3 33 -7 36 -36 l3
-33 57 3 57 3 3 -32 3 -33 1795 0 1794 0 0 23 c0 41 13 49 68 41 48 -6 52 -5
52 14 0 38 11 52 41 52 l29 0 0 1890 0 1890 -30 0 c-25 0 -31 5 -38 33 -8 31
-10 32 -57 29 -52 -2 -65 6 -65 46 l0 22 -1825 0 -1825 0 0 -31z m3548 -181
c3 -27 4 -27 88 -30 l84 -3 0 -1715 c0 -1628 -1 -1715 -17 -1721 -10 -3 -24
-4 -32 -1 -10 4 -12 -7 -10 -54 l4 -59 -57 -3 c-53 -3 -57 -5 -60 -30 l-3 -27
-1720 0 -1720 0 -3 27 c-3 25 -7 27 -58 30 l-54 3 0 1685 0 1685 31 3 31 3 -4
87 -3 87 58 3 c52 3 57 5 57 26 0 12 3 26 7 29 3 4 765 6 1692 5 l1686 -3 3
-27z"/>
<path d="M8987 8373 c-4 -3 -7 -17 -7 -30 0 -16 -8 -27 -25 -33 -14 -5 -30
-21 -35 -35 -7 -19 -17 -25 -41 -25 l-31 0 4 -57 3 -58 -32 -3 -33 -3 0 -1769
0 -1769 33 -3 32 -3 -3 -57 -4 -57 34 -3 c28 -3 34 -8 38 -33 5 -29 7 -30 60
-30 53 0 55 -1 60 -30 l5 -30 1794 0 1794 0 4 24 c5 34 8 36 66 36 37 0 51 4
49 13 -4 20 17 52 33 52 13 0 15 237 15 1890 0 1653 -2 1890 -15 1890 -16 0
-37 32 -33 52 2 9 -12 13 -49 13 -58 0 -61 2 -66 36 l-4 24 -1820 3 c-1001 1
-1823 -1 -1826 -5z m3543 -203 l0 -30 90 0 90 0 0 -1720 0 -1720 -30 0 -30 0
0 -60 0 -60 -60 0 -60 0 0 -30 0 -30 -1720 0 -1720 0 -6 30 c-6 29 -9 30 -60
30 l-54 0 0 1690 0 1690 30 0 30 0 0 90 0 90 54 0 c51 0 54 1 60 30 l6 30
1690 0 1690 0 0 -30z"/>
<path d="M253 4028 c1 -36 -5 -48 -27 -54 -14 -3 -27 -15 -30 -30 -4 -14 -16
-26 -30 -30 -14 -3 -27 -16 -30 -30 -4 -14 -16 -26 -31 -30 -15 -4 -28 -16
-31 -30 -3 -13 -15 -26 -25 -29 -19 -6 -19 -46 -19 -1770 0 -1754 0 -1763 20
-1768 17 -4 20 -14 20 -61 0 -54 1 -56 26 -56 19 0 28 -7 37 -30 7 -18 19 -30
29 -30 10 0 24 -11 30 -25 l11 -25 1823 0 1823 0 3 22 c2 14 12 24 28 28 15 4
26 15 30 30 4 15 15 26 30 30 15 4 26 15 30 30 4 19 13 26 38 28 l32 3 0 1825
c0 1791 0 1824 -19 1824 -33 0 -51 11 -51 32 0 12 -11 23 -30 29 -24 9 -30 17
-30 40 0 29 0 29 -60 29 l-60 0 0 30 0 30 -1769 0 c-1409 0 -1769 -3 -1768
-12z"/>
<path d="M4650 4017 c0 -28 -17 -47 -42 -47 -11 0 -18 -7 -18 -18 0 -23 -19
-42 -42 -42 -11 0 -18 -7 -18 -18 0 -10 -5 -23 -12 -30 -7 -7 -20 -12 -30 -12
-11 0 -18 -7 -18 -18 0 -25 -19 -42 -47 -42 l-23 0 0 -1765 0 -1765 23 0 c35
0 44 -16 39 -70 -4 -48 -3 -50 20 -50 28 0 48 -17 48 -41 0 -11 9 -19 23 -21
12 -2 26 -13 32 -25 l10 -23 1820 0 1820 0 10 22 c6 13 20 24 33 26 13 2 22
10 22 21 0 22 19 41 42 41 11 0 18 7 18 18 0 25 19 42 47 42 l23 0 0 1825 0
1825 -23 0 c-28 0 -47 17 -47 42 0 11 -7 18 -18 18 -24 0 -42 19 -42 47 0 20
-5 22 -57 25 -55 3 -58 4 -61 31 l-3 27 -1765 0 -1764 0 0 -23z"/>
<path d="M9040 4011 c0 -23 -6 -31 -30 -40 -20 -6 -30 -17 -30 -30 0 -12 -10
-23 -30 -30 -20 -6 -30 -17 -30 -30 0 -12 -10 -23 -30 -30 -19 -6 -30 -17 -30
-29 0 -21 -18 -32 -51 -32 -19 0 -19 -32 -19 -1764 l0 -1765 33 -3 32 -3 -3
-57 -3 -57 33 -3 c25 -2 34 -9 38 -28 4 -15 15 -26 30 -30 16 -4 26 -14 28
-28 l3 -22 1823 0 1823 0 11 25 c6 14 20 25 30 25 10 0 22 12 29 30 7 19 18
30 30 30 12 0 23 11 30 30 6 17 18 30 27 30 15 0 16 165 16 1824 0 1784 0
1825 -19 1831 -10 3 -22 16 -25 29 -3 14 -16 26 -31 30 -23 6 -29 18 -28 54 1
8 -17 12 -58 12 -61 0 -63 2 -62 48 1 9 -359 12 -1768 12 l-1769 0 0 -29z"/>
</g>
</svg>
